<svg width="162" height="57" viewBox="0 0 162 57" fill="none" xmlns="http://www.w3.org/2000/svg">
<g clip-path="url(#clip0_1720_2249)">
<path d="M2.30446 14.0245C2.84107 14.1996 3.48833 14.2885 4.24623 14.2885H9.18366C9.86134 14.2885 10.4367 14.1968 10.9069 14.0161C11.3771 13.8355 11.7589 13.5742 12.0521 13.2323C12.3453 12.8904 12.561 12.479 12.6966 11.9953C12.8321 11.5117 12.9012 10.9752 12.9012 10.3831V5.88281H11.001V10.8279C11.001 11.2253 10.9152 11.5256 10.7465 11.7229C10.5778 11.923 10.2486 12.0203 9.76176 12.0203H4.77455C4.17432 12.0203 3.68749 11.9814 3.31684 11.9008C2.94342 11.8202 2.65298 11.7035 2.44276 11.5506C2.23254 11.3977 2.09147 11.2114 2.01955 10.9974C1.94487 10.7806 1.90891 10.5304 1.90891 10.2469C1.90891 9.7688 1.95593 9.27402 2.05275 8.76256C2.14956 8.2511 2.30999 7.67014 2.53681 7.02248L0.686311 6.58051C0.448429 7.28655 0.276934 7.97035 0.169057 8.63469C0.0584146 9.30181 0.00585938 9.92446 0.00585938 10.5026C0.00585938 11.0808 0.0860752 11.6089 0.243741 12.0787C0.401406 12.5513 0.650352 12.9487 0.990578 13.2712C1.3308 13.5936 1.76784 13.8466 2.30446 14.0217V14.0245Z" fill="#063069"/>
<path d="M7.80893 5.41994C8.10213 5.41994 8.35108 5.32265 8.55576 5.13085C8.76045 4.93906 8.86003 4.69445 8.86003 4.39702C8.86003 4.09959 8.75769 3.86888 8.55576 3.66319C8.35108 3.45749 8.10213 3.35742 7.80893 3.35742C7.51572 3.35742 7.28614 3.46027 7.08698 3.66319C6.88783 3.86888 6.79102 4.11349 6.79102 4.39702C6.79102 4.68055 6.89059 4.93628 7.08698 5.13085C7.28338 5.32543 7.52402 5.41994 7.80893 5.41994Z" fill="#063069"/>
<path d="M5.11166 5.41994C5.40486 5.41994 5.65381 5.32265 5.8585 5.13085C6.06319 4.93906 6.16277 4.69445 6.16277 4.39702C6.16277 4.09959 6.06042 3.86888 5.8585 3.66319C5.65381 3.45749 5.40486 3.35742 5.11166 3.35742C4.81846 3.35742 4.58888 3.46027 4.38972 3.66319C4.19056 3.86888 4.09375 4.11349 4.09375 4.39702C4.09375 4.68055 4.19333 4.93628 4.38972 5.13085C4.58611 5.32543 4.82676 5.41994 5.11166 5.41994Z" fill="#063069"/>
<path d="M19.4952 17.0664C19.6999 16.8718 19.7995 16.63 19.7995 16.3326C19.7995 16.0351 19.6971 15.8044 19.4952 15.5987C19.2905 15.393 19.0416 15.293 18.7484 15.293C18.4552 15.293 18.2256 15.3958 18.0264 15.5987C17.8273 15.8044 17.7305 16.0463 17.7305 16.3326C17.7305 16.6189 17.83 16.8718 18.0264 17.0664C18.2228 17.2582 18.4635 17.3555 18.7484 17.3555C19.0333 17.3555 19.2905 17.2582 19.4952 17.0664Z" fill="#063069"/>
<path d="M21.4476 17.3555C21.7408 17.3555 21.9897 17.2582 22.1944 17.0664C22.3991 16.8718 22.4987 16.63 22.4987 16.3326C22.4987 16.0351 22.3964 15.8044 22.1944 15.5987C21.9897 15.393 21.7408 15.293 21.4476 15.293C21.1544 15.293 20.9248 15.3958 20.7257 15.5987C20.5265 15.8044 20.4297 16.0463 20.4297 16.3326C20.4297 16.6189 20.5293 16.8718 20.7257 17.0664C20.922 17.2582 21.1627 17.3555 21.4476 17.3555Z" fill="#063069"/>
<path d="M30.5765 3.66603C30.8697 3.66603 31.1187 3.56875 31.3233 3.37695C31.528 3.18515 31.6276 2.94054 31.6276 2.64311C31.6276 2.34569 31.5253 2.11498 31.3233 1.90928C31.1187 1.70358 30.8697 1.60352 30.5765 1.60352C30.2833 1.60352 30.0537 1.70636 29.8546 1.90928C29.6554 2.11498 29.5586 2.35959 29.5586 2.64311C29.5586 2.92664 29.6582 3.18237 29.8546 3.37695C30.051 3.57152 30.2916 3.66603 30.5765 3.66603Z" fill="#063069"/>
<path d="M44.4707 3.4771C44.4707 3.77174 44.5703 4.01635 44.7667 4.21093C44.9631 4.40551 45.2037 4.50002 45.4886 4.50002C45.7735 4.50002 46.0308 4.40273 46.2354 4.21093C46.4401 4.01913 46.5397 3.77452 46.5397 3.4771C46.5397 3.17967 46.4374 2.94896 46.2354 2.74326C46.0308 2.53757 45.7818 2.4375 45.4886 2.4375C45.1954 2.4375 44.9658 2.54035 44.7667 2.74326C44.5675 2.94896 44.4707 3.19357 44.4707 3.4771Z" fill="#063069"/>
<path d="M44.1507 2.06252C44.4439 2.06252 44.6929 1.96523 44.8976 1.77343C45.1023 1.58163 45.2018 1.33702 45.2018 1.0396C45.2018 0.742173 45.0995 0.51146 44.8976 0.305764C44.6929 0.100068 44.4439 0 44.1507 0C43.8575 0 43.6279 0.102848 43.4288 0.305764C43.2296 0.51146 43.1328 0.756071 43.1328 1.0396C43.1328 1.32312 43.2324 1.57886 43.4288 1.77343C43.6252 1.96801 43.8658 2.06252 44.1507 2.06252Z" fill="#063069"/>
<path d="M42.7913 4.50002C43.0845 4.50002 43.3335 4.40273 43.5382 4.21093C43.7429 4.01913 43.8425 3.77452 43.8425 3.4771C43.8425 3.17967 43.7401 2.94896 43.5382 2.74326C43.3335 2.53757 43.0845 2.4375 42.7913 2.4375C42.4981 2.4375 42.2686 2.54035 42.0694 2.74326C41.8702 2.94896 41.7734 3.19357 41.7734 3.4771C41.7734 3.76062 41.873 4.01635 42.0694 4.21093C42.2658 4.40551 42.5064 4.50002 42.7913 4.50002Z" fill="#063069"/>
<path d="M53.1917 4.50002C53.4849 4.50002 53.7339 4.40273 53.9386 4.21093C54.1433 4.01913 54.2428 3.77452 54.2428 3.4771C54.2428 3.17967 54.1405 2.94896 53.9386 2.74326C53.7339 2.53757 53.4849 2.4375 53.1917 2.4375C52.8985 2.4375 52.669 2.54035 52.4698 2.74326C52.2706 2.94896 52.1738 3.19357 52.1738 3.4771C52.1738 3.76062 52.2734 4.01635 52.4698 4.21093C52.6662 4.40551 52.9068 4.50002 53.1917 4.50002Z" fill="#063069"/>
<path d="M55.889 4.50002C56.1822 4.50002 56.4312 4.40273 56.6358 4.21093C56.8405 4.01913 56.9401 3.77452 56.9401 3.4771C56.9401 3.17967 56.8378 2.94896 56.6358 2.74326C56.4312 2.53757 56.1822 2.4375 55.889 2.4375C55.5958 2.4375 55.3662 2.54035 55.1671 2.74326C54.9679 2.94896 54.8711 3.19357 54.8711 3.4771C54.8711 3.76062 54.9707 4.01635 55.1671 4.21093C55.3635 4.40551 55.6041 4.50002 55.889 4.50002Z" fill="#063069"/>
<path d="M81.5573 9.53099C81.3775 8.91669 81.1285 8.35519 80.8104 7.84373C80.4923 7.33227 80.1161 6.91532 79.6736 6.5901C79.231 6.26488 78.7525 6.10366 78.2324 6.10366C77.8037 6.10366 77.3999 6.20094 77.0292 6.39274C76.6558 6.58732 76.2934 6.88474 75.9421 7.2878C75.5909 7.69085 75.2479 8.20231 74.9159 8.82218C74.5812 9.44204 74.241 10.1842 73.8897 11.0459C73.8095 11.2516 73.7376 11.4156 73.6684 11.5407C73.5993 11.6658 73.5163 11.7631 73.414 11.8298C73.3116 11.8993 73.1872 11.9465 73.0406 11.9743C72.8939 12.0021 72.7003 12.016 72.4624 12.016H70.4958C70.7226 11.8242 70.8802 11.5629 70.9715 11.2322C71.0628 10.9014 71.1071 10.465 71.1071 9.92015V5.41986H69.2068V10.1425C69.2068 10.8013 69.0574 11.2794 68.7587 11.5741C68.4599 11.8687 67.9178 12.016 67.1378 12.016H65.8986C66.1254 11.8242 66.2803 11.5629 66.366 11.2322C66.4518 10.9014 66.4933 10.465 66.4933 9.92015V5.94799H64.593V10.1425C64.593 10.8013 64.4436 11.2794 64.1421 11.5741C63.8434 11.8687 63.3012 12.016 62.5212 12.016H60.6901C60.9169 11.8242 61.0718 11.5629 61.1575 11.2322C61.2433 10.9014 61.2848 10.465 61.2848 9.92015V5.94799H59.3845V10.1425C59.3845 10.8013 59.2434 11.2794 58.9613 11.5741C58.6792 11.8687 58.1481 12.016 57.3653 12.016H54.9062C55.1331 11.8242 55.288 11.5629 55.3737 11.2322C55.4595 10.9014 55.5009 10.465 55.5009 9.92015V5.86182H53.6007V10.1397C53.6007 10.7985 53.4513 11.2766 53.1526 11.5713C52.8538 11.8659 52.3117 12.0132 51.5316 12.0132H49.1058C49.3326 11.8214 49.4903 11.5602 49.5816 11.2294C49.6729 10.8986 49.7171 10.4622 49.7171 9.91737V5.41708H47.8168V10.1397C47.8168 10.7985 47.6675 11.2766 47.3687 11.5713C47.07 11.8659 46.5278 12.0132 45.7478 12.0132H44.5086C44.7354 11.8214 44.8903 11.5602 44.9761 11.2294C45.0618 10.8986 45.1033 10.4622 45.1033 9.91737V5.94521H43.203V10.1397C43.203 10.7985 43.0537 11.2766 42.7522 11.5713C42.4534 11.8659 41.9113 12.0132 41.1312 12.0132H39.3001C39.5269 11.8214 39.6818 11.5602 39.7676 11.2294C39.8533 10.8986 39.8948 10.4622 39.8948 9.91737V5.94521H37.9945V10.1397C37.9945 10.7985 37.8535 11.2766 37.5713 11.5713C37.2892 11.8659 36.7581 12.0132 35.9753 12.0132L35.967 12.0216L35.9587 12.0132H35.0265C34.5729 12.0132 34.1857 12.0049 33.8648 11.9882C33.5412 11.9715 33.2341 11.9354 32.9409 11.877C33.4831 11.4573 33.8731 10.982 34.111 10.4538C34.3489 9.92571 34.4678 9.34754 34.4678 8.72211C34.4678 8.14116 34.3738 7.61302 34.1884 7.13769C34.0031 6.65959 33.7431 6.25376 33.4167 5.91742C33.0875 5.58108 32.6975 5.31979 32.2467 5.13355C31.793 4.94731 31.2979 4.8528 30.753 4.8528C30.2081 4.8528 29.6687 4.94731 29.2012 5.13355C28.731 5.31979 28.3216 5.58664 27.9703 5.92576C27.619 6.26766 27.348 6.67349 27.1571 7.14603C26.9635 7.61858 26.8694 8.14394 26.8694 8.72211C26.8694 9.34754 26.9884 9.92293 27.2263 10.4538C27.4641 10.9848 27.8541 11.4573 28.3963 11.877C28.1031 11.9354 27.8127 11.9715 27.5305 11.9882C27.2484 12.0049 26.9413 12.0132 26.615 12.0132H22.9001C23.1269 11.8214 23.2818 11.5602 23.3676 11.2294C23.4533 10.8986 23.4948 10.4622 23.4948 9.91737V5.85904H21.5945V10.137C21.5945 10.7957 21.4452 11.2738 21.1464 11.5685C20.8477 11.8631 20.3056 12.0105 19.5255 12.0105H18.2531C18.0153 12.0105 17.8272 11.9827 17.6861 11.9243C17.545 11.8687 17.4372 11.7909 17.3625 11.6936C17.2878 11.5963 17.2408 11.4795 17.2186 11.3433C17.1965 11.2071 17.1854 11.0598 17.1854 10.9014V1.63672H15.2852V10.3816C15.2852 10.9153 15.3266 11.4212 15.4124 11.8993C15.4981 12.3774 15.6586 12.7916 15.8965 13.1446C16.1343 13.4976 16.469 13.7756 16.9061 13.9813C17.3403 14.1869 17.9102 14.287 18.61 14.287H25.9207C27.5831 14.287 29.1431 13.9979 30.6036 13.417C31.3726 13.7116 32.1775 13.9312 33.0212 14.073C33.8648 14.2147 34.7776 14.287 35.7623 14.287H35.967L35.9753 14.2787L35.9836 14.287H72.7473C73.2895 14.287 73.7293 14.2092 74.0612 14.0563C74.3959 13.9034 74.6698 13.6894 74.8828 13.417C75.4028 13.7478 75.9753 13.9868 76.5949 14.1425C77.2173 14.2954 77.8784 14.3732 78.581 14.3732C79.0678 14.3732 79.5076 14.3093 79.9032 14.1869C80.2987 14.0619 80.6417 13.8756 80.9294 13.6255C81.217 13.3753 81.4411 13.0612 81.5987 12.6804C81.7564 12.2995 81.8366 11.8492 81.8366 11.3239C81.8366 10.7429 81.7454 10.1481 81.5656 9.53377L81.5573 9.53099ZM32.1028 10.3482C31.7986 10.8041 31.3339 11.1599 30.7115 11.4212C30.1002 11.1599 29.6217 10.7985 29.2787 10.3399C28.9329 9.87845 28.7614 9.36977 28.7614 8.81384C28.7614 8.30238 28.9329 7.89377 29.2787 7.58522C29.6244 7.27946 30.0836 7.1238 30.6617 7.1238C31.2951 7.1238 31.7709 7.2878 32.0862 7.61858C32.4016 7.94936 32.562 8.37465 32.562 8.89723C32.562 9.41981 32.4099 9.89235 32.1028 10.3454V10.3482ZM79.4855 11.9243C79.3499 12.0438 79.0623 12.1022 78.6197 12.1022C78.4261 12.1022 78.2131 12.0883 77.9752 12.0605C77.7373 12.0327 77.4994 11.9854 77.2616 11.9243C77.0237 11.8631 76.7886 11.7881 76.5562 11.7019C76.3239 11.6157 76.1247 11.5185 75.9532 11.4045C76.169 10.8374 76.3654 10.3566 76.5479 9.96462C76.7277 9.57269 76.8992 9.25581 77.0569 9.01953C77.2145 8.78048 77.3722 8.60814 77.5243 8.49973C77.6765 8.39133 77.8314 8.33851 77.9918 8.33851C78.2518 8.33851 78.4869 8.44414 78.6972 8.65262C78.9074 8.86387 79.0844 9.12238 79.231 9.42815C79.3776 9.73391 79.491 10.0619 79.5712 10.4094C79.6514 10.7568 79.6902 11.0654 79.6902 11.3378C79.6902 11.6102 79.621 11.8075 79.4855 11.9271V11.9243Z" fill="#063069"/>
<path d="M6.4808 36.5312C6.19866 36.5312 5.95802 36.6341 5.75886 36.837C5.5597 37.0427 5.46289 37.2845 5.46289 37.5708C5.46289 37.8572 5.56247 38.1101 5.75886 38.3047C5.95525 38.4965 6.1959 38.5938 6.4808 38.5938C6.76571 38.5938 7.02295 38.4965 7.22764 38.3047C7.43233 38.1101 7.53191 37.8683 7.53191 37.5708C7.53191 37.2734 7.42956 37.0427 7.22764 36.837C7.02295 36.6313 6.774 36.5312 6.4808 36.5312Z" fill="#063069"/>
<path d="M3.78354 36.5312C3.5014 36.5312 3.26075 36.6341 3.06159 36.837C2.86244 37.0427 2.76562 37.2845 2.76562 37.5708C2.76562 37.8572 2.8652 38.1101 3.06159 38.3047C3.25798 38.4965 3.49863 38.5938 3.78354 38.5938C4.06844 38.5938 4.32568 38.4965 4.53037 38.3047C4.73506 38.1101 4.83464 37.8683 4.83464 37.5708C4.83464 37.2734 4.7323 37.0427 4.53037 36.837C4.32568 36.6313 4.07674 36.5312 3.78354 36.5312Z" fill="#063069"/>
<path d="M22.807 30.7849C22.807 31.1157 22.7268 31.3826 22.5691 31.5855C22.4115 31.7912 22.0823 31.8912 21.5844 31.8912H15.2169C14.8988 31.8912 14.6388 31.8718 14.4369 31.8329C14.2322 31.794 14.0745 31.7106 13.9611 31.5855C13.8477 31.4604 13.7703 31.2797 13.7315 31.0407C13.6928 30.8016 13.6735 30.4847 13.6735 30.0872V25.7732C13.3111 25.6259 12.9156 25.5036 12.4868 25.4063C12.0581 25.309 11.5298 25.2617 10.9102 25.2617C10.2906 25.2617 9.74565 25.3534 9.31415 25.5341C8.88541 25.7148 8.53688 25.9761 8.27134 26.3097C8.0058 26.646 7.81217 27.049 7.69323 27.5188C7.57429 27.9914 7.51621 28.5167 7.51621 29.0949V32.0108C7.51621 32.2832 7.48855 32.5028 7.43046 32.6668C7.37237 32.8308 7.27832 32.9559 7.14279 33.042C7.00725 33.1282 6.82469 33.1838 6.60064 33.2116C6.37382 33.2394 6.09722 33.2533 5.76805 33.2533H5.17335C4.53992 33.2533 4.0116 33.2199 3.5884 33.1504C3.16519 33.0809 2.82773 32.9281 2.57878 32.689C2.32984 32.45 2.15558 32.0997 2.05323 31.6411C1.95089 31.1796 1.9011 30.5598 1.9011 29.7731C1.9011 29.4562 1.92046 29.1394 1.95919 28.828C1.99791 28.5167 2.05323 28.1943 2.11962 27.8635L0.269121 27.5216C0.166777 27.9524 0.0976251 28.3694 0.0561342 28.7669C0.0174093 29.1644 -0.00195312 29.5508 -0.00195312 29.926C-0.00195312 30.9601 0.108689 31.8329 0.329974 32.5417C0.551259 33.2533 0.863825 33.8287 1.27044 34.2734C1.67705 34.7154 2.16941 35.0351 2.74751 35.2269C3.32562 35.4186 3.97011 35.5159 4.68099 35.5159H5.30889C6.08892 35.5159 6.74171 35.4409 7.26726 35.2936C7.79281 35.1462 8.21602 34.9183 8.53965 34.6125C8.86328 34.3068 9.09009 33.9148 9.22563 33.4367C9.36117 32.9586 9.43032 32.3971 9.43032 31.7495V28.867C9.43032 28.5612 9.45522 28.3194 9.50777 28.1415C9.55756 27.9663 9.63501 27.8329 9.73735 27.7412C9.8397 27.6495 9.9697 27.5911 10.1274 27.5633C10.285 27.5355 10.4787 27.5216 10.7055 27.5216C10.8631 27.5216 11.0485 27.5411 11.2559 27.58C11.4661 27.6189 11.6376 27.6689 11.7732 27.7245V30.4514C11.7732 31.7245 12.0443 32.6584 12.5864 33.2561C13.1285 33.8537 14.0275 34.1511 15.2833 34.1511H21.2276C21.9274 34.1511 22.5055 34.0566 22.9591 33.8704C23.41 33.6841 23.7668 33.4256 24.0268 33.0948C24.2868 32.7641 24.4639 32.3693 24.5607 31.9107C24.6575 31.4493 24.7045 30.9545 24.7045 30.418V25.7287H22.8042V30.7738L22.807 30.7849Z" fill="#063069"/>
<path d="M23.7406 22.3125C23.4584 22.3125 23.2178 22.4153 23.0186 22.6183C22.8195 22.824 22.7227 23.0686 22.7227 23.3521C22.7227 23.6356 22.8222 23.8914 23.0186 24.0859C23.215 24.2805 23.4557 24.375 23.7406 24.375C24.0255 24.375 24.2827 24.2777 24.4874 24.0859C24.6921 23.8941 24.7917 23.6495 24.7917 23.3521C24.7917 23.0547 24.6893 22.824 24.4874 22.6183C24.2827 22.4126 24.0338 22.3125 23.7406 22.3125Z" fill="#063069"/>
<path d="M41.892 31.8938C41.4273 31.8938 41.0262 31.8299 40.6887 31.6964C40.3485 31.5658 40.0691 31.3935 39.8478 31.1766C39.6266 30.9598 39.4634 30.7124 39.3555 30.4345C39.2476 30.1565 39.1951 29.8702 39.1951 29.5728C39.1951 29.356 39.2476 29.1419 39.3555 28.9251C39.4634 28.7083 39.6072 28.5137 39.787 28.3358C39.9668 28.1607 40.1825 28.0189 40.4315 27.9105C40.6804 27.8021 40.9515 27.7493 41.2447 27.7493C41.6181 27.7493 41.9943 27.7938 42.3733 27.8855C42.7522 27.9772 43.1837 28.169 43.6705 28.4665L44.7908 26.4901C44.2486 26.0815 43.7508 25.8119 43.2971 25.6812C42.8435 25.5506 42.3539 25.4839 41.82 25.4839C41.2198 25.4839 40.65 25.6062 40.1079 25.8508C39.5657 26.0954 39.0844 26.4262 38.6667 26.8404C38.2491 27.2545 37.9144 27.7354 37.6654 28.2802C37.4165 28.825 37.292 29.406 37.292 30.0203C37.292 30.3622 37.3446 30.7069 37.4524 31.0599C37.5603 31.4129 37.6986 31.6909 37.8673 31.8966H36.4594H30.3879C30.15 31.8966 29.9619 31.8688 29.8209 31.8104C29.6798 31.7548 29.5719 31.677 29.4972 31.5797C29.4226 31.4824 29.3755 31.3657 29.3534 31.2295C29.3313 31.0933 29.3202 30.9459 29.3202 30.7875V21.5117H27.4199V30.2566C27.4199 30.7903 27.4614 31.2962 27.5472 31.7743C27.6329 32.2524 27.7933 32.6666 28.0312 33.0196C28.2691 33.3726 28.6038 33.6506 29.0408 33.8563C29.4751 34.0619 30.0449 34.162 30.7447 34.162H36.4622H36.4788H41.1949C41.8615 34.162 42.542 34.1287 43.2307 34.0592C43.9195 33.9897 44.5889 33.8729 45.2334 33.7006L45.6925 31.4324C44.9457 31.627 44.2708 31.752 43.665 31.8076C43.0592 31.866 42.4701 31.8938 41.892 31.8938Z" fill="#063069"/>
<path d="M66.2894 35.166C66.0073 35.166 65.7666 35.2689 65.5675 35.4718C65.3683 35.6775 65.2715 35.9193 65.2715 36.2056C65.2715 36.4919 65.3711 36.7449 65.5675 36.9394C65.7638 37.1312 66.0045 37.2285 66.2894 37.2285C66.5743 37.2285 66.8315 37.1312 67.0362 36.9394C67.2409 36.7449 67.3405 36.503 67.3405 36.2056C67.3405 35.9082 67.2382 35.6775 67.0362 35.4718C66.8315 35.2661 66.5826 35.166 66.2894 35.166Z" fill="#063069"/>
<path d="M74.9754 30.7847C74.9754 31.2044 74.9007 31.4963 74.7541 31.6547C74.6075 31.8132 74.3254 31.8938 73.9049 31.8938H71.4099C70.5386 29.8257 69.5816 28.2691 68.5332 27.2212C67.4877 26.176 66.3646 25.6534 65.1669 25.6534C64.5888 25.6534 64.0329 25.7201 63.4962 25.8508C62.9596 25.9814 62.3898 26.2455 61.7923 26.643L62.8434 28.6027C63.5792 28.1496 64.2846 27.9216 64.965 27.9216C65.8916 27.9216 66.7242 28.2774 67.46 28.9863C68.1958 29.6979 68.8679 30.6652 69.4792 31.8938H54.7195C54.7195 31.0766 54.6033 30.3066 54.371 29.5839C54.1386 28.8612 53.7957 28.2191 53.3448 27.6576C52.8912 27.0961 52.3352 26.6235 51.6741 26.2427C51.013 25.8619 50.2579 25.5978 49.4087 25.4505L48.6618 27.7187C49.2953 27.8216 49.8678 27.9995 50.3851 28.2552C50.8996 28.5109 51.3366 28.825 51.699 29.2003C52.0613 29.5756 52.3379 29.9925 52.5316 30.4539C52.7224 30.9154 52.8192 31.3935 52.8192 31.8938H47.915L47.2871 34.162H73.3794C74.082 34.162 74.6573 34.0592 75.1109 33.8563C75.5646 33.6506 75.9186 33.3726 76.1786 33.0196C76.4386 32.6666 76.6184 32.2524 76.7208 31.7743C76.8231 31.2962 76.8729 30.7903 76.8729 30.2566V21.5117H74.9726V30.7875L74.9754 30.7847Z" fill="#063069"/>
<path d="M81.83 21.5098H79.9297V34.1601H81.83V21.5098Z" fill="#063069"/>
<path d="M0.000812938 50.7265C0.000812938 50.5708 0.0561342 50.4402 0.164011 50.3346C0.271887 50.2262 0.404658 50.1734 0.559558 50.1734H0.631475C0.833398 50.1734 1.02426 50.1344 1.19852 50.0566C1.37278 49.9788 1.52491 49.8731 1.64939 49.7397C1.77386 49.6063 1.87344 49.4479 1.94259 49.2644C2.01451 49.0809 2.0477 48.8808 2.0477 48.664V44.6668C2.0477 44.4973 2.10579 44.3555 2.2192 44.2387C2.3326 44.122 2.47367 44.0664 2.6341 44.0664C2.79454 44.0664 2.9439 44.1248 3.06008 44.2387C3.17349 44.3555 3.23157 44.4973 3.23157 44.6668V48.5862C3.23157 48.9864 3.16795 49.3506 3.03795 49.6813C2.91071 50.0093 2.72815 50.2929 2.4958 50.5319C2.26345 50.771 1.98685 50.9544 1.67151 51.0879C1.35342 51.2213 1.00489 51.2852 0.628709 51.2852H0.556792C0.401892 51.2852 0.269121 51.2324 0.161245 51.124C0.0533681 51.0156 -0.00195312 50.8849 -0.00195312 50.7293L0.000812938 50.7265Z" fill="#063069"/>
<path d="M6.94089 51.3817C6.55641 51.3817 6.19959 51.3122 5.87319 51.1732C5.5468 51.0342 5.26189 50.8424 5.02125 50.5978C4.7806 50.3532 4.59527 50.0697 4.45974 49.7417C4.3242 49.4164 4.25781 49.0634 4.25781 48.6826C4.25781 48.3018 4.3242 47.9571 4.45974 47.6291C4.59527 47.3011 4.78336 47.012 5.02125 46.7702C5.26189 46.5256 5.54403 46.3338 5.87319 46.1948C6.19959 46.0558 6.55641 45.9863 6.94089 45.9863C7.32538 45.9863 7.68773 46.053 7.9837 46.1837C8.27967 46.3171 8.51755 46.4617 8.69181 46.6173C8.82735 46.7396 8.89373 46.8814 8.89373 47.0454C8.89373 47.1204 8.88267 47.1871 8.85778 47.2483C8.83288 47.3095 8.79139 47.3762 8.73054 47.4512L7.17048 49.3136C7.06813 49.4359 6.94089 49.4971 6.78599 49.4971C6.63109 49.4971 6.50386 49.4498 6.40704 49.3553C6.31023 49.2608 6.26044 49.1385 6.26044 48.9884C6.26044 48.9272 6.26874 48.8689 6.28534 48.8105C6.30193 48.7521 6.33513 48.6993 6.38215 48.652L7.60751 47.2066C7.519 47.1455 7.41389 47.101 7.29218 47.0704C7.17048 47.0398 7.05154 47.0259 6.93813 47.0259C6.72237 47.0259 6.52045 47.0676 6.32959 47.1538C6.1415 47.24 5.97554 47.3567 5.83447 47.504C5.6934 47.6541 5.57999 47.8293 5.49977 48.0322C5.41956 48.2351 5.37807 48.4519 5.37807 48.6826C5.37807 48.9133 5.41956 49.1301 5.49977 49.3303C5.57999 49.5304 5.69063 49.7055 5.82894 49.8556C5.96724 50.0057 6.13044 50.1225 6.3213 50.2114C6.50939 50.3004 6.71684 50.3449 6.93813 50.3449C7.17324 50.3449 7.3807 50.3004 7.56049 50.2114C7.74029 50.1225 7.88965 50.0141 8.01136 49.8862C8.09158 49.8195 8.16626 49.7583 8.23541 49.7083C8.3018 49.6583 8.39031 49.6333 8.49819 49.6333C8.65309 49.6333 8.78309 49.6833 8.8882 49.7861C8.99331 49.889 9.04587 50.0169 9.04587 50.1725C9.04587 50.2948 8.99055 50.4171 8.88267 50.5394C8.68628 50.7785 8.42074 50.9758 8.08604 51.1398C7.75135 51.3038 7.36963 51.3845 6.93536 51.3845L6.94089 51.3817Z" fill="#063069"/>
<path d="M13.9072 50.7512C13.6832 50.9486 13.4287 51.1015 13.141 51.2154C12.8533 51.3266 12.5491 51.3822 12.2254 51.3822C11.8603 51.3822 11.5201 51.3127 11.2075 51.1737C10.895 51.0348 10.6239 50.843 10.3971 50.5983C10.1703 50.3537 9.99322 50.0702 9.86045 49.7422C9.72768 49.417 9.66406 49.064 9.66406 48.6831C9.66406 48.3023 9.73045 47.9577 9.86045 47.6297C9.99322 47.3017 10.1703 47.0126 10.3971 46.7707C10.6239 46.5261 10.8922 46.3343 11.2075 46.1953C11.5229 46.0564 11.8603 45.9869 12.2254 45.9869C12.5491 45.9869 12.8561 46.0425 13.141 46.1536C13.4287 46.2648 13.6832 46.4233 13.9072 46.6262V44.622C13.9072 44.4664 13.9625 44.333 14.0704 44.2246C14.1783 44.1161 14.311 44.0605 14.4659 44.0605C14.6208 44.0605 14.7536 44.1161 14.8615 44.2246C14.9694 44.333 15.0247 44.4664 15.0247 44.622V50.8013C15.0247 50.9569 14.9694 51.0903 14.8615 51.2043C14.7536 51.3155 14.6208 51.3711 14.4659 51.3711C14.311 51.3711 14.1783 51.3155 14.0704 51.2043C13.9625 51.0931 13.9072 50.9597 13.9072 50.8013V50.7512ZM12.3471 50.3454C12.5629 50.3454 12.7648 50.3037 12.9557 50.2175C13.1438 50.1341 13.3097 50.0174 13.4508 49.8701C13.5919 49.7255 13.7053 49.5504 13.7855 49.3447C13.8657 49.1418 13.9072 48.9194 13.9072 48.6831V48.6109C13.8934 48.3857 13.8464 48.1772 13.7661 47.9854C13.6859 47.7937 13.5725 47.6241 13.4314 47.4823C13.2904 47.3406 13.1272 47.2266 12.9391 47.146C12.7538 47.0654 12.5546 47.0237 12.3471 47.0237C12.1397 47.0237 11.9295 47.0654 11.7386 47.1515C11.5505 47.2377 11.3846 47.3517 11.2435 47.499C11.1024 47.6463 10.989 47.8187 10.9088 48.0244C10.8286 48.2273 10.7871 48.4497 10.7871 48.6859C10.7871 48.9222 10.8286 49.1446 10.9088 49.3475C10.989 49.5504 11.1024 49.7255 11.2435 49.8728C11.3846 50.0202 11.5505 50.1341 11.7386 50.2203C11.9267 50.3065 12.1314 50.3482 12.3471 50.3482V50.3454Z" fill="#063069"/>
<path d="M20.3506 50.7507C20.1265 50.948 19.872 51.1009 19.5844 51.2149C19.2967 51.3261 18.9924 51.3817 18.6688 51.3817C18.3037 51.3817 17.9635 51.3122 17.6509 51.1732C17.3383 51.0342 17.0672 50.8424 16.8404 50.5978C16.6136 50.3532 16.4366 50.0697 16.3038 49.7417C16.171 49.4164 16.1074 49.0634 16.1074 48.6826C16.1074 48.3018 16.1738 47.9571 16.3038 47.6291C16.4366 47.3011 16.6136 47.012 16.8404 46.7702C17.0672 46.5256 17.3356 46.3338 17.6509 46.1948C17.9662 46.0558 18.3037 45.9863 18.6688 45.9863C18.9924 45.9863 19.2995 46.0419 19.5844 46.1531C19.872 46.2643 20.1265 46.4227 20.3506 46.6257V46.5534C20.3506 46.3977 20.4059 46.2643 20.5138 46.1559C20.6216 46.0475 20.7544 45.9919 20.9093 45.9919C21.0642 45.9919 21.197 46.0475 21.3049 46.1559C21.4127 46.2643 21.4681 46.3977 21.4681 46.5534V50.7979C21.4681 50.9536 21.4127 51.087 21.3049 51.201C21.197 51.3122 21.0642 51.3678 20.9093 51.3678C20.7544 51.3678 20.6216 51.3122 20.5138 51.201C20.4059 51.0898 20.3506 50.9564 20.3506 50.7979V50.7479V50.7507ZM18.7905 50.3449C19.0063 50.3449 19.2082 50.3032 19.399 50.217C19.5871 50.1336 19.7531 50.0169 19.8942 49.8695C20.0352 49.725 20.1486 49.5499 20.2289 49.3442C20.3091 49.1413 20.3506 48.9189 20.3506 48.6826V48.6103C20.3367 48.3852 20.2897 48.1767 20.2095 47.9849C20.1293 47.7931 20.0159 47.6236 19.8748 47.4818C19.7337 47.34 19.5705 47.2261 19.3824 47.1455C19.1971 47.0648 18.998 47.0231 18.7905 47.0231C18.583 47.0231 18.3728 47.0648 18.182 47.151C17.9939 47.2372 17.8279 47.3511 17.6868 47.4985C17.5458 47.6458 17.4324 47.8181 17.3522 48.0238C17.2719 48.2267 17.2304 48.4491 17.2304 48.6854C17.2304 48.9217 17.2719 49.144 17.3522 49.347C17.4324 49.5499 17.5458 49.725 17.6868 49.8723C17.8279 50.0196 17.9939 50.1336 18.182 50.2198C18.3701 50.3059 18.5748 50.3476 18.7905 50.3476V50.3449Z" fill="#063069"/>
<path d="M26.792 50.7507C26.5679 50.948 26.3134 51.1009 26.0258 51.2149C25.7381 51.3261 25.4338 51.3817 25.1102 51.3817C24.7451 51.3817 24.4049 51.3122 24.0923 51.1732C23.7797 51.0342 23.5087 50.8424 23.2818 50.5978C23.055 50.3532 22.878 50.0697 22.7452 49.7417C22.6124 49.4164 22.5488 49.0634 22.5488 48.6826C22.5488 48.3018 22.6152 47.9571 22.7452 47.6291C22.878 47.3011 23.055 47.012 23.2818 46.7702C23.5087 46.5256 23.777 46.3338 24.0923 46.1948C24.4076 46.0558 24.7451 45.9863 25.1102 45.9863C25.4338 45.9863 25.7409 46.0419 26.0258 46.1531C26.3134 46.2643 26.5679 46.4227 26.792 46.6257V46.5534C26.792 46.3977 26.8473 46.2643 26.9552 46.1559C27.063 46.0475 27.1958 45.9919 27.3507 45.9919C27.5056 45.9919 27.6384 46.0475 27.7463 46.1559C27.8541 46.2643 27.9095 46.3977 27.9095 46.5534V50.7979C27.9095 50.9536 27.8541 51.087 27.7463 51.201C27.6384 51.3122 27.5056 51.3678 27.3507 51.3678C27.1958 51.3678 27.063 51.3122 26.9552 51.201C26.8473 51.0898 26.792 50.9564 26.792 50.7979V50.7479V50.7507ZM25.2319 50.3449C25.4477 50.3449 25.6496 50.3032 25.8404 50.217C26.0285 50.1336 26.1945 50.0169 26.3356 49.8695C26.4766 49.725 26.59 49.5499 26.6703 49.3442C26.7505 49.1413 26.792 48.9189 26.792 48.6826V48.6103C26.7781 48.3852 26.7311 48.1767 26.6509 47.9849C26.5707 47.7931 26.4573 47.6236 26.3162 47.4818C26.1751 47.34 26.0119 47.2261 25.8238 47.1455C25.6385 47.0648 25.4394 47.0231 25.2319 47.0231C25.0245 47.0231 24.8142 47.0648 24.6234 47.151C24.4353 47.2372 24.2693 47.3511 24.1283 47.4985C23.9872 47.6458 23.8738 47.8181 23.7936 48.0238C23.7133 48.2267 23.6719 48.4491 23.6719 48.6854C23.6719 48.9217 23.7133 49.144 23.7936 49.347C23.8738 49.5499 23.9872 49.725 24.1283 49.8723C24.2693 50.0196 24.4353 50.1336 24.6234 50.2198C24.8115 50.3059 25.0162 50.3476 25.2319 50.3476V50.3449Z" fill="#063069"/>
<path d="M29.2048 48.3605C29.2048 47.9935 29.2628 47.6655 29.3818 47.3737C29.5007 47.0818 29.6612 46.8344 29.8686 46.6315C30.0733 46.4286 30.3167 46.2702 30.5933 46.159C30.8699 46.0478 31.1659 45.9922 31.484 45.9922C31.8021 45.9922 32.0981 46.0478 32.3747 46.159C32.6513 46.2702 32.8919 46.4286 33.0994 46.6315C33.3041 46.8344 33.4673 47.0818 33.5862 47.3737C33.7051 47.6655 33.7632 47.9935 33.7632 48.3605V50.8038C33.7632 50.9595 33.7079 51.0929 33.6 51.2069C33.4921 51.318 33.3594 51.3736 33.2045 51.3736C33.0496 51.3736 32.9168 51.318 32.8089 51.2069C32.7011 51.0957 32.6457 50.9622 32.6457 50.8038V48.3188C32.6457 47.8907 32.5323 47.5683 32.3055 47.3514C32.0787 47.1346 31.8049 47.0262 31.4812 47.0262C31.1576 47.0262 30.881 47.1346 30.6569 47.3514C30.4301 47.5683 30.3167 47.8907 30.3167 48.3188V50.8038C30.3167 50.9595 30.2614 51.0929 30.1535 51.2069C30.0456 51.318 29.9129 51.3736 29.758 51.3736C29.6031 51.3736 29.4703 51.318 29.3624 51.2069C29.2545 51.0957 29.1992 50.9622 29.1992 50.8038V48.3605H29.2048Z" fill="#063069"/>
<path d="M35.6056 45.4091C35.423 45.4091 35.2681 45.3423 35.1409 45.2117C35.0137 45.0783 34.9473 44.9254 34.9473 44.7475C34.9473 44.5696 35.0109 44.4084 35.1409 44.2805C35.2709 44.1526 35.4258 44.0859 35.6056 44.0859C35.7854 44.0859 35.943 44.1499 36.0703 44.2805C36.1975 44.4084 36.2639 44.5668 36.2639 44.7475C36.2639 44.9282 36.2003 45.0783 36.0703 45.2117C35.9403 45.3451 35.7854 45.4091 35.6056 45.4091ZM35.0496 46.5598C35.0496 46.4042 35.1022 46.2708 35.2128 46.1624C35.3207 46.0539 35.4535 45.9984 35.6084 45.9984C35.7633 45.9984 35.896 46.0539 36.0039 46.1624C36.1118 46.2708 36.1671 46.4042 36.1671 46.5598V50.8044C36.1671 50.9601 36.1118 51.0935 36.0039 51.2075C35.896 51.3186 35.7633 51.3742 35.6084 51.3742C35.4535 51.3742 35.3207 51.3186 35.2128 51.2075C35.1049 51.0963 35.0496 50.9629 35.0496 50.8044V46.5598Z" fill="#063069"/>
<path d="M39.9922 44.6629C39.9922 44.4933 40.0503 44.3516 40.1665 44.2348C40.2826 44.1209 40.4237 44.0625 40.5841 44.0625C40.7446 44.0625 40.8829 44.1209 41.0018 44.2348C41.118 44.3516 41.1788 44.4933 41.1788 44.6629V47.1563H44.0251V44.6629C44.0251 44.4933 44.0832 44.3516 44.1966 44.2348C44.31 44.1209 44.4511 44.0625 44.6115 44.0625C44.7719 44.0625 44.9213 44.1209 45.0375 44.2348C45.1509 44.3516 45.209 44.4933 45.209 44.6629V50.7699C45.209 50.9339 45.1509 51.0728 45.0375 51.1924C44.9213 51.3119 44.7802 51.3703 44.6115 51.3703C44.4428 51.3703 44.31 51.3119 44.1966 51.1924C44.0804 51.0728 44.0251 50.9339 44.0251 50.7699V48.2654H41.1788V50.7699C41.1788 50.9339 41.1207 51.0728 41.0018 51.1924C40.8856 51.3119 40.7446 51.3703 40.5841 51.3703C40.4237 51.3703 40.2854 51.3119 40.1665 51.1924C40.0503 51.0728 39.9922 50.9339 39.9922 50.7699V44.6629Z" fill="#063069"/>
<path d="M48.976 51.3817C48.5916 51.3817 48.2347 51.3122 47.9083 51.1732C47.582 51.0342 47.297 50.8424 47.0564 50.5978C46.8158 50.3532 46.6304 50.0697 46.4949 49.7417C46.3594 49.4164 46.293 49.0634 46.293 48.6826C46.293 48.3018 46.3594 47.9571 46.4949 47.6291C46.6304 47.3011 46.8185 47.012 47.0564 46.7702C47.297 46.5256 47.5792 46.3338 47.9083 46.1948C48.2347 46.0558 48.5916 45.9863 48.976 45.9863C49.3605 45.9863 49.7201 46.0558 50.0493 46.1948C50.3812 46.3338 50.6633 46.5256 50.9012 46.7702C51.1363 47.0148 51.3244 47.3011 51.4572 47.6291C51.5927 47.9571 51.6591 48.3101 51.6591 48.6826C51.6591 49.0551 51.5927 49.4164 51.4572 49.7417C51.3217 50.0669 51.1363 50.3532 50.9012 50.5978C50.6633 50.8424 50.3812 51.0342 50.0493 51.1732C49.7174 51.3122 49.3605 51.3817 48.976 51.3817ZM48.976 50.3449C49.2001 50.3449 49.4048 50.3004 49.5929 50.2114C49.781 50.1225 49.9469 50.0057 50.088 49.8556C50.2291 49.7055 50.3397 49.5304 50.4172 49.3275C50.4946 49.1246 50.5333 48.9105 50.5333 48.6854C50.5333 48.4602 50.4946 48.2406 50.4172 48.0377C50.3397 47.8376 50.2291 47.6625 50.088 47.5124C49.9469 47.3623 49.781 47.2455 49.5929 47.1566C49.4048 47.0676 49.1973 47.0231 48.976 47.0231C48.7548 47.0231 48.5473 47.0676 48.3592 47.1566C48.1711 47.2455 48.0052 47.365 47.8641 47.5124C47.723 47.6625 47.6124 47.8376 47.5349 48.0377C47.4575 48.2379 47.4188 48.4547 47.4188 48.6854C47.4188 48.9161 47.4575 49.1218 47.5349 49.3275C47.6124 49.5304 47.723 49.7083 47.8641 49.8556C48.0052 50.0057 48.1711 50.1225 48.3592 50.2114C48.5473 50.3004 48.7548 50.3449 48.976 50.3449Z" fill="#063069"/>
<path d="M52.5348 50.1622C52.5348 50.0205 52.5846 49.8982 52.6814 49.7953C52.7782 49.6925 52.9 49.6424 53.041 49.6424C53.2153 49.6424 53.3453 49.7091 53.4255 49.8453C53.5002 49.9621 53.597 50.0788 53.7187 50.1956C53.8404 50.3151 54.0091 50.3735 54.2249 50.3735C54.3936 50.3735 54.5319 50.3179 54.6398 50.2095C54.7477 50.1011 54.803 49.9732 54.803 49.8231C54.803 49.6119 54.7173 49.4562 54.5485 49.3561C54.3798 49.2533 54.1779 49.1615 53.94 49.0809C53.7768 49.0253 53.6164 48.9642 53.4587 48.8919C53.301 48.8196 53.1544 48.7279 53.0244 48.6167C52.8917 48.5055 52.7865 48.361 52.7063 48.1887C52.6261 48.0163 52.5846 47.7967 52.5846 47.5327C52.5846 47.3158 52.6261 47.1129 52.7119 46.9267C52.7948 46.7405 52.911 46.5764 53.0576 46.4375C53.2015 46.2985 53.3757 46.1873 53.5749 46.1067C53.774 46.0261 53.9925 45.9844 54.2277 45.9844C54.4434 45.9844 54.6509 46.015 54.85 46.0761C55.0492 46.1373 55.2234 46.2234 55.3756 46.3318C55.5277 46.4402 55.6494 46.5653 55.7407 46.7043C55.832 46.8433 55.8762 46.9934 55.8762 47.1574C55.8762 47.2992 55.8264 47.4187 55.7241 47.5132C55.6218 47.6077 55.5001 47.655 55.359 47.655C55.3037 47.655 55.2456 47.6438 55.182 47.6188C55.1183 47.5938 55.0685 47.5466 55.0354 47.4715C54.9939 47.4242 54.9468 47.3714 54.8943 47.3131C54.839 47.2547 54.7781 47.2019 54.7117 47.1546C54.6453 47.1074 54.5707 47.0657 54.4932 47.0323C54.4158 46.999 54.3272 46.9823 54.2249 46.9823C54.0479 46.9823 53.9096 47.0379 53.81 47.1463C53.7076 47.2547 53.6579 47.3826 53.6579 47.5327C53.6579 47.6355 53.6827 47.7217 53.7325 47.7967C53.7823 47.8718 53.8515 47.9329 53.9345 47.9857C54.0174 48.0386 54.117 48.083 54.2332 48.1275C54.3466 48.172 54.4683 48.2137 54.5983 48.2554C54.7532 48.3026 54.9081 48.361 55.063 48.4333C55.2179 48.5055 55.359 48.5973 55.489 48.714C55.6162 48.8308 55.7213 48.9753 55.7988 49.1504C55.8762 49.3283 55.915 49.5396 55.915 49.7925C55.915 50.0093 55.8707 50.2123 55.7822 50.4041C55.6937 50.5931 55.5747 50.7626 55.4226 50.9072C55.2705 51.0545 55.0907 51.1685 54.886 51.2546C54.6785 51.3408 54.46 51.3825 54.2221 51.3825C53.9981 51.3825 53.7851 51.3491 53.5776 51.2797C53.3729 51.2129 53.1904 51.1212 53.0355 51.01C52.8806 50.8988 52.7561 50.7682 52.6648 50.6181C52.5736 50.468 52.5293 50.3151 52.5293 50.1594L52.5348 50.1622Z" fill="#063069"/>
<path d="M59.7856 51.3828C59.462 51.3828 59.1549 51.3272 58.87 51.216C58.5823 51.1048 58.3279 50.9492 58.1038 50.7518V52.7476C58.1038 52.9033 58.0485 53.0367 57.9406 53.1451C57.8327 53.2535 57.7 53.3091 57.5451 53.3091C57.3902 53.3091 57.2574 53.2535 57.1495 53.1451C57.0416 53.0367 56.9863 52.9033 56.9863 52.7476V46.5573C56.9863 46.4016 57.0389 46.2682 57.1495 46.1598C57.2574 46.0514 57.3902 45.9958 57.5451 45.9958C57.7 45.9958 57.8327 46.0514 57.9406 46.1598C58.0485 46.2682 58.1038 46.4016 58.1038 46.5573V46.6296C58.3279 46.4266 58.5823 46.2682 58.87 46.157C59.1577 46.0458 59.462 45.9902 59.7856 45.9902C60.1507 45.9902 60.4909 46.0597 60.8035 46.1987C61.1188 46.3377 61.3871 46.5295 61.614 46.7741C61.8408 47.0187 62.0178 47.305 62.1506 47.633C62.2833 47.961 62.347 48.314 62.347 48.6865C62.347 49.059 62.2806 49.4204 62.1506 49.7456C62.0178 50.0708 61.8408 50.3571 61.614 50.6017C61.3871 50.8463 61.1188 51.0381 60.8035 51.1771C60.4909 51.3161 60.1507 51.3856 59.7856 51.3856V51.3828ZM59.6639 50.346C59.8796 50.346 60.0815 50.3043 60.2724 50.2181C60.4605 50.1347 60.6265 50.018 60.7675 49.8707C60.9086 49.7261 61.022 49.551 61.1022 49.3453C61.1824 49.1424 61.2239 48.92 61.2239 48.6837C61.2239 48.4475 61.1824 48.2251 61.1022 48.0222C61.022 47.8193 60.9086 47.6441 60.7675 47.4968C60.6265 47.3523 60.4605 47.2355 60.2724 47.1494C60.0843 47.066 59.8796 47.0215 59.6639 47.0215C59.4481 47.0215 59.2462 47.0632 59.0609 47.1438C58.8755 47.2244 58.7123 47.3384 58.574 47.4801C58.4357 47.6219 58.3251 47.7915 58.2394 47.9833C58.1536 48.1778 58.1093 48.3863 58.1038 48.6087V48.681C58.1038 48.92 58.1453 49.1396 58.2255 49.3425C58.3057 49.5454 58.4191 49.7206 58.5602 49.8679C58.7013 50.0152 58.8672 50.1292 59.0553 50.2153C59.2434 50.3015 59.4481 50.3432 59.6639 50.3432V50.346Z" fill="#063069"/>
<path d="M63.9904 45.4091C63.8078 45.4091 63.6529 45.3423 63.5257 45.2117C63.3984 45.0783 63.332 44.9254 63.332 44.7475C63.332 44.5696 63.3956 44.4084 63.5257 44.2805C63.6557 44.1526 63.8106 44.0859 63.9904 44.0859C64.1701 44.0859 64.3278 44.1499 64.4551 44.2805C64.5823 44.4084 64.6487 44.5668 64.6487 44.7475C64.6487 44.9282 64.5851 45.0783 64.4551 45.2117C64.325 45.3451 64.1701 45.4091 63.9904 45.4091ZM63.4316 46.5598C63.4316 46.4042 63.4842 46.2708 63.5948 46.1624C63.7027 46.0539 63.8355 45.9984 63.9904 45.9984C64.1453 45.9984 64.278 46.0539 64.3859 46.1624C64.4938 46.2708 64.5491 46.4042 64.5491 46.5598V50.8044C64.5491 50.9601 64.4938 51.0935 64.3859 51.2075C64.278 51.3186 64.1453 51.3742 63.9904 51.3742C63.8355 51.3742 63.7027 51.3186 63.5948 51.2075C63.4869 51.0963 63.4316 50.9629 63.4316 50.8044V46.5598Z" fill="#063069"/>
<path d="M65.4783 46.9763C65.376 46.8734 65.3262 46.7511 65.3262 46.6094C65.3262 46.4676 65.376 46.337 65.4783 46.2369C65.5807 46.1396 65.7024 46.0896 65.8434 46.0896H66.2085V45.3252C66.2085 45.1695 66.2639 45.0361 66.3717 44.9277C66.4796 44.8193 66.6124 44.7637 66.7673 44.7637C66.9222 44.7637 67.055 44.8193 67.1628 44.9277C67.2707 45.0361 67.326 45.1695 67.326 45.3252V46.0896H68.5099C68.651 46.0896 68.7727 46.1396 68.875 46.2369C68.9774 46.3342 69.0272 46.4593 69.0272 46.6094C69.0272 46.7595 68.9774 46.8734 68.875 46.9763C68.7727 47.0791 68.651 47.1292 68.5099 47.1292H67.326V48.9721C67.326 49.4196 67.4367 49.7588 67.6607 49.9839C67.8848 50.2118 68.1669 50.3258 68.5127 50.3258C68.6537 50.3258 68.7755 50.3758 68.8778 50.4787C68.9801 50.5815 69.0299 50.7038 69.0299 50.8456C69.0299 50.9874 68.9801 51.1208 68.8778 51.2209C68.7755 51.3237 68.6537 51.3737 68.5127 51.3737C68.189 51.3737 67.8875 51.3181 67.6054 51.207C67.326 51.0958 67.0826 50.9346 66.8752 50.7289C66.6705 50.5232 66.5073 50.2702 66.3883 49.97C66.2694 49.6726 66.2113 49.339 66.2113 48.9721V47.1292H65.8462C65.7051 47.1292 65.5834 47.0791 65.4811 46.9763H65.4783Z" fill="#063069"/>
<path d="M73.8349 50.7507C73.6109 50.948 73.3564 51.1009 73.0687 51.2149C72.7811 51.3261 72.4768 51.3817 72.1532 51.3817C71.7881 51.3817 71.4478 51.3122 71.1353 51.1732C70.8227 51.0342 70.5516 50.8424 70.3248 50.5978C70.098 50.3532 69.921 50.0697 69.7882 49.7417C69.6554 49.4164 69.5918 49.0634 69.5918 48.6826C69.5918 48.3018 69.6582 47.9571 69.7882 47.6291C69.921 47.3011 70.098 47.012 70.3248 46.7702C70.5516 46.5256 70.8199 46.3338 71.1353 46.1948C71.4506 46.0558 71.7881 45.9863 72.1532 45.9863C72.4768 45.9863 72.7838 46.0419 73.0687 46.1531C73.3564 46.2643 73.6109 46.4227 73.8349 46.6257V46.5534C73.8349 46.3977 73.8903 46.2643 73.9981 46.1559C74.106 46.0475 74.2388 45.9919 74.3937 45.9919C74.5486 45.9919 74.6814 46.0475 74.7892 46.1559C74.8971 46.2643 74.9524 46.3977 74.9524 46.5534V50.7979C74.9524 50.9536 74.8971 51.087 74.7892 51.201C74.6814 51.3122 74.5486 51.3678 74.3937 51.3678C74.2388 51.3678 74.106 51.3122 73.9981 51.201C73.8903 51.0898 73.8349 50.9564 73.8349 50.7979V50.7479V50.7507ZM72.2749 50.3449C72.4906 50.3449 72.6926 50.3032 72.8834 50.217C73.0715 50.1336 73.2375 50.0169 73.3785 49.8695C73.5196 49.725 73.633 49.5499 73.7132 49.3442C73.7934 49.1413 73.8349 48.9189 73.8349 48.6826V48.6103C73.8211 48.3852 73.7741 48.1767 73.6939 47.9849C73.6137 47.7931 73.5002 47.6236 73.3592 47.4818C73.2181 47.34 73.0549 47.2261 72.8668 47.1455C72.6815 47.0648 72.4823 47.0231 72.2749 47.0231C72.0674 47.0231 71.8572 47.0648 71.6663 47.151C71.4783 47.2372 71.3123 47.3511 71.1712 47.4985C71.0301 47.6458 70.9167 47.8181 70.8365 48.0238C70.7563 48.2267 70.7148 48.4491 70.7148 48.6854C70.7148 48.9217 70.7563 49.144 70.8365 49.347C70.9167 49.5499 71.0301 49.725 71.1712 49.8723C71.3123 50.0196 71.4783 50.1336 71.6663 50.2198C71.8544 50.3059 72.0591 50.3476 72.2749 50.3476V50.3449Z" fill="#063069"/>
<path d="M76.2461 44.624C76.2461 44.4683 76.2986 44.3349 76.4093 44.2265C76.5172 44.1181 76.6499 44.0625 76.8048 44.0625C76.9597 44.0625 77.0925 44.1181 77.2004 44.2265C77.3083 44.3349 77.3636 44.4683 77.3636 44.624V50.8032C77.3636 50.9589 77.3083 51.0923 77.2004 51.2063C77.0925 51.3174 76.9597 51.373 76.8048 51.373C76.6499 51.373 76.5172 51.3174 76.4093 51.2063C76.3014 51.0951 76.2461 50.9617 76.2461 50.8032V44.624Z" fill="#063069"/>
<path d="M78.4469 50.1622C78.4469 50.0205 78.4967 49.8982 78.5935 49.7953C78.6904 49.6925 78.8121 49.6424 78.9531 49.6424C79.1274 49.6424 79.2574 49.7091 79.3376 49.8453C79.4123 49.9621 79.5091 50.0788 79.6308 50.1956C79.7525 50.3151 79.9213 50.3735 80.137 50.3735C80.3057 50.3735 80.444 50.3179 80.5519 50.2095C80.6598 50.1011 80.7151 49.9732 80.7151 49.8231C80.7151 49.6119 80.6294 49.4562 80.4606 49.3561C80.2919 49.2533 80.09 49.1615 79.8521 49.0809C79.6889 49.0253 79.5285 48.9642 79.3708 48.8919C79.2131 48.8196 79.0665 48.7279 78.9365 48.6167C78.8038 48.5055 78.6987 48.361 78.6184 48.1887C78.5382 48.0163 78.4967 47.7967 78.4967 47.5327C78.4967 47.3158 78.5382 47.1129 78.624 46.9267C78.7069 46.7405 78.8231 46.5764 78.9697 46.4375C79.1136 46.2985 79.2878 46.1873 79.487 46.1067C79.6861 46.0261 79.9047 45.9844 80.1398 45.9844C80.3555 45.9844 80.563 46.015 80.7621 46.0761C80.9613 46.1373 81.1356 46.2234 81.2877 46.3318C81.4398 46.4402 81.5615 46.5653 81.6528 46.7043C81.7441 46.8433 81.7883 46.9934 81.7883 47.1574C81.7883 47.2992 81.7386 47.4187 81.6362 47.5132C81.5339 47.6077 81.4122 47.655 81.2711 47.655C81.2158 47.655 81.1577 47.6438 81.0941 47.6188C81.0304 47.5938 80.9807 47.5466 80.9475 47.4715C80.906 47.4242 80.859 47.3714 80.8064 47.3131C80.7511 47.2547 80.6902 47.2019 80.6238 47.1546C80.5574 47.1074 80.4828 47.0657 80.4053 47.0323C80.3279 46.999 80.2393 46.9823 80.137 46.9823C79.96 46.9823 79.8217 47.0379 79.7221 47.1463C79.6198 47.2547 79.57 47.3826 79.57 47.5327C79.57 47.6355 79.5949 47.7217 79.6446 47.7967C79.6944 47.8718 79.7636 47.9329 79.8466 47.9857C79.9296 48.0386 80.0291 48.083 80.1453 48.1275C80.2587 48.172 80.3804 48.2137 80.5104 48.2554C80.6653 48.3026 80.8202 48.361 80.9751 48.4333C81.13 48.5055 81.2711 48.5973 81.4011 48.714C81.5283 48.8308 81.6334 48.9753 81.7109 49.1504C81.7883 49.3283 81.8271 49.5396 81.8271 49.7925C81.8271 50.0093 81.7828 50.2123 81.6943 50.4041C81.6058 50.5931 81.4868 50.7626 81.3347 50.9072C81.1826 51.0545 81.0028 51.1685 80.7981 51.2546C80.5906 51.3408 80.3721 51.3825 80.1342 51.3825C79.9102 51.3825 79.6972 51.3491 79.4897 51.2797C79.2851 51.2129 79.1025 51.1212 78.9476 51.01C78.7927 50.8988 78.6682 50.7682 78.5769 50.6181C78.4857 50.468 78.4414 50.3151 78.4414 50.1594L78.4469 50.1622Z" fill="#063069"/>
<path d="M145.299 52.5469C144.538 52.7498 143.758 52.9027 142.959 53.0027C143.692 52.9194 144.519 52.7776 145.299 52.5469Z" fill="url(#paint0_linear_1720_2249)"/>
<path d="M151.437 2.06333C149.221 2.06333 147.138 2.64984 145.338 3.66998C145.064 3.82564 144.795 3.9952 144.535 4.17032C143.789 4.6651 143.1 5.24605 142.48 5.90206C140.469 8.00349 139.178 10.8221 139.031 13.9437V14.6608C139.031 14.6608 139.023 14.6608 139.017 14.6608C138.45 14.7247 137.914 14.822 137.407 14.936C137.092 15.0083 136.79 15.0917 136.5 15.1834C133.114 16.2424 131.471 18.3105 131.35 18.4662C131.35 18.4662 131.35 18.469 131.347 18.4717C131.347 18.4745 131.344 18.4745 131.344 18.4773C131.336 18.4551 129.698 16.2786 126.202 15.1834C125.906 15.0917 125.605 15.0055 125.292 14.936H125.286C124.777 14.822 124.252 14.7247 123.682 14.6608C123.682 14.6608 123.677 14.6608 123.668 14.6608V13.9298C123.37 7.66993 118.482 2.61926 112.308 2.10224C111.962 2.07445 111.617 2.06055 111.262 2.06055H100.693V35.8197C100.693 38.0101 101.025 40.1198 101.642 42.1073C101.794 42.5938 101.96 43.0719 102.146 43.5416C102.289 43.9085 102.444 44.2727 102.607 44.6313C102.962 45.4068 103.363 46.1573 103.802 46.88C104.029 47.2525 104.267 47.6138 104.516 47.9696C107.739 52.5756 112.734 55.8389 118.504 56.7451C118.955 56.8146 119.406 56.8729 119.862 56.9146C120.49 56.973 121.129 56.998 121.768 56.998C121.984 56.998 122.194 56.998 122.407 56.9897C122.836 56.9786 123.259 56.9536 123.685 56.9146C124.136 56.8729 124.595 56.8146 125.037 56.7367C125.751 56.6283 126.454 56.481 127.14 56.3003C127.154 56.2975 127.635 56.1947 128.49 55.8945C128.495 55.8945 128.498 55.8945 128.501 55.8917C128.506 55.8917 128.512 55.8889 128.517 55.8862C128.525 55.8834 128.528 55.8806 128.534 55.8778C128.968 55.7305 129.394 55.5721 129.812 55.3997L130.102 55.2579H130.108C130.5 55.0856 130.926 54.8883 131.383 54.6631L131.552 54.5825C131.731 54.6659 131.917 54.7493 132.099 54.8299C135.427 56.292 139.236 57.2704 143.158 56.8813C143.169 56.8813 143.18 56.8813 143.191 56.8785C143.639 56.8312 144.087 56.7673 144.527 56.6923C147.064 56.2503 149.448 55.358 151.589 54.0877C154.197 52.545 156.449 50.4547 158.18 47.9724C160.587 44.5284 162 40.3422 162 35.8225V2.06333H151.44H151.437ZM127.148 52.1586C127.148 52.1586 127.131 52.1642 127.126 52.167C126.025 52.5533 124.885 52.8535 123.732 53.0175C123.453 53.0592 123.173 53.0981 122.894 53.1259C122.764 53.1343 122.634 53.1426 122.504 53.1482C122.479 53.1482 122.457 53.151 122.429 53.151C122.285 53.1565 122.139 53.1593 121.995 53.1621C121.975 53.1621 121.953 53.1621 121.934 53.1621H121.693C121.644 53.1621 121.594 53.1621 121.544 53.1621C121.494 53.1621 121.444 53.1621 121.397 53.1593C120.88 53.1482 120.366 53.1148 119.862 53.0592C119.655 53.037 119.447 53.0092 119.245 52.9786C118.994 52.9397 118.747 52.8952 118.504 52.8452C113.439 51.8695 109.155 48.659 106.71 44.2782C106.568 44.0225 106.433 43.764 106.303 43.5027C105.882 42.6521 105.531 41.7626 105.255 40.8398C105.127 40.4228 105.019 40.0031 104.925 39.575C104.66 38.3686 104.519 37.1122 104.519 35.8252V5.90484H111.077C111.672 5.90484 112.25 5.96321 112.811 6.07718C116.391 6.79711 119.19 9.69909 119.757 13.3488C119.807 13.6657 119.826 13.9853 119.826 14.3022V14.6942C119.721 14.7053 119.622 14.7164 119.525 14.7275C119.519 14.7275 119.514 14.7275 119.508 14.7275C118.9 14.7942 118.507 14.8554 118.507 14.8554C118.507 14.8554 117.248 15.075 116.158 15.5503C116.158 15.5503 116.154 15.5531 116.145 15.5586C112.941 16.7956 110.825 18.8553 109.832 21.7045C109.586 22.4105 109.395 23.1472 109.268 23.8949C108.803 26.5328 109.041 29.432 109.971 32.2589C110.914 35.1164 112.56 37.9878 114.988 41.0205C116.479 42.8884 118.111 44.6257 119.865 46.2462C120.249 46.6215 120.637 46.9856 121.024 47.3387C121.024 47.3387 121.024 47.3414 121.029 47.3442C122.069 48.2949 123.118 49.1621 124.133 49.9432C124.34 50.1044 124.548 50.2629 124.755 50.4158C125.58 51.0328 126.379 51.5916 127.126 52.0919C127.137 52.1002 127.148 52.103 127.156 52.1114L127.178 52.1253C127.178 52.1253 127.192 52.1336 127.198 52.1364C127.184 52.1419 127.167 52.1475 127.151 52.1531L127.148 52.1586ZM131.43 50.185C131.416 50.1767 131.402 50.1684 131.391 50.16C131.377 50.1517 131.372 50.1489 131.372 50.1489H131.369L131.269 50.0905C131.043 49.9627 130.821 49.832 130.597 49.6986C129.975 49.3289 129.369 48.9425 128.783 48.545C128.672 48.47 128.561 48.3949 128.451 48.3171C123.867 45.165 120.523 41.5486 120.075 41.0538C120.067 41.0455 120.059 41.0371 120.053 41.0316C120.042 41.0205 120.036 41.0121 120.031 41.0066C120.025 41.001 120.023 40.9982 120.023 40.9982C119.613 40.5618 119.22 40.1143 118.83 39.6556H118.822C118.526 39.3165 118.247 38.9691 117.965 38.616C115.818 35.9364 114.391 33.4681 113.594 31.0498C112.659 28.2145 112.604 25.3431 113.434 22.9748C114.123 20.9901 115.755 19.6336 118.407 18.8387H118.41C118.44 18.8303 118.468 18.822 118.499 18.8136C118.797 18.7108 119.29 18.6469 119.857 18.6079V30.6467C119.857 30.8246 119.857 31.0136 119.857 31.2138V31.4556C119.859 32.2117 119.926 32.9427 120.036 33.6543C121.06 40.1504 126.08 44.7007 126.161 44.7702C124.584 42.1601 123.677 39.0997 123.677 35.8252V18.5996L123.867 18.6274C123.928 18.6357 124 18.6496 124.078 18.6635C125.649 18.9888 131.164 20.4953 131.339 25.9824H131.347C131.516 20.537 136.954 19.0138 138.564 18.6719C138.564 18.6719 138.569 18.6719 138.572 18.6719C138.663 18.6524 138.752 18.6385 138.826 18.6246C138.912 18.6135 138.984 18.6052 139.017 18.6024V19.4002V35.828C139.017 38.6133 138.362 41.2428 137.194 43.575C136.99 43.9836 136.768 44.3811 136.536 44.773C136.583 44.7313 137.324 44.0559 138.284 42.8773C140.14 40.6063 142.807 36.4729 142.837 31.4584V18.5968C143.128 18.6302 143.41 18.6691 143.695 18.7191C144.126 18.7997 144.657 18.9637 144.773 18.9999C146.97 19.756 148.394 20.9373 149.108 22.5912C149.163 22.7191 149.216 22.847 149.26 22.9832C149.863 24.7066 149.996 26.694 149.664 28.7454C149.539 29.5098 149.348 30.2881 149.097 31.0609C148.734 32.1505 148.245 33.2513 147.62 34.3743C147.517 34.5549 147.415 34.7384 147.307 34.9219C146.842 35.7113 146.309 36.5118 145.708 37.3318C145.631 37.4375 145.553 37.5431 145.473 37.6487C145.47 37.6543 145.465 37.6598 145.462 37.6654C145.224 37.9823 144.975 38.3019 144.718 38.6244C144.303 39.1442 143.877 39.6529 143.437 40.1532C142.973 40.6786 142.497 41.1956 142.007 41.7015C142.007 41.7015 141.509 42.2157 140.522 43.1052H140.519C140.519 43.1052 140.491 43.133 140.458 43.1719C140.453 43.1775 140.45 43.183 140.444 43.1858C140.431 43.1997 140.411 43.2192 140.395 43.2386C140.386 43.247 140.381 43.2498 140.375 43.2581C140.359 43.272 140.342 43.2915 140.323 43.3081L140.301 43.3304C140.301 43.3304 140.284 43.3443 140.276 43.3526L140.251 43.3776C139.941 43.6834 139.374 44.2282 138.605 44.912C138.572 44.9398 138.541 44.9704 138.508 44.9982C138.497 45.0093 138.486 45.0176 138.472 45.0288C138.439 45.0593 138.403 45.0899 138.367 45.1205C138.179 45.2845 137.98 45.4568 137.77 45.6347C137.77 45.6347 135.15 48.0892 131.419 50.1962L131.43 50.185ZM158.18 35.9059C158.144 43.8835 152.72 50.602 145.385 52.5756H145.382C144.621 52.7785 143.841 52.9314 143.042 53.0314C143.006 53.037 142.97 53.0398 142.934 53.0453C142.901 53.0481 142.873 53.0509 142.84 53.0564C142.386 53.1065 141.924 53.1398 141.462 53.1537H141.443C141.41 53.1537 141.377 53.1537 141.343 53.1537C140.984 53.1649 140.768 53.1593 140.768 53.1593C140.176 53.1537 139.593 53.1204 139.02 53.0564C138.24 52.9703 137.465 52.8285 136.721 52.6395C136.542 52.5922 136.359 52.5422 136.182 52.4922L135.584 52.3115L135.488 52.2837C135.488 52.2837 135.488 52.2837 135.479 52.2837L135.457 52.2754C135.457 52.2754 135.449 52.2754 135.441 52.2726H135.43V52.267C135.43 52.267 135.43 52.267 135.432 52.267C135.549 52.1892 137.186 51.1329 138.561 50.0766C138.599 50.0488 138.638 50.0183 138.677 49.9877C138.915 49.8015 139.155 49.6069 139.396 49.4067C139.421 49.3845 139.446 49.365 139.468 49.3484C139.482 49.3372 139.496 49.3261 139.51 49.3122C139.579 49.2539 139.651 49.1955 139.72 49.1371C140.248 48.6979 140.785 48.2309 141.33 47.7362C141.446 47.6333 141.559 47.5277 141.678 47.4193C141.742 47.3581 141.808 47.2997 141.874 47.2386C141.927 47.1913 141.977 47.1413 142.027 47.0968L142.204 46.93L142.212 46.9217C143.022 46.1573 143.852 45.3317 144.693 44.4395C145.315 43.8001 145.916 43.1469 146.502 42.4714C146.914 41.9989 147.315 41.5152 147.708 41.0288C148.084 40.5563 148.444 40.0893 148.784 39.6251C149.357 38.844 149.877 38.0712 150.344 37.3096C150.914 36.3784 151.409 35.4583 151.827 34.5438C152.175 33.7822 152.474 33.0261 152.726 32.2673C152.986 31.4723 153.193 30.6717 153.343 29.874C153.733 27.8309 153.763 25.799 153.428 23.9032C153.301 23.1527 153.119 22.4189 152.864 21.7128C152.499 20.6677 151.982 19.7282 151.315 18.8943C150.142 17.4294 148.505 16.298 146.416 15.5114C146.405 15.5086 146.394 15.5031 146.383 15.5003C146.292 15.4669 146.203 15.4336 146.115 15.403C146.054 15.3807 145.996 15.3613 145.935 15.3418C145.891 15.3279 145.847 15.314 145.802 15.3001C145.332 15.1473 144.964 15.0583 144.964 15.0583C144.516 14.9666 144.062 14.8943 143.606 14.8304C143.365 14.8026 143.122 14.7776 142.873 14.7498C142.868 14.7498 142.865 14.7498 142.859 14.7498V14.2105C142.859 14.091 142.865 13.9715 142.876 13.8519C143.086 11.7699 144.013 9.90479 145.407 8.50383C146.997 6.91108 149.194 5.92429 151.622 5.92429H158.172V35.9253L158.18 35.9059Z" fill="url(#paint1_linear_1720_2249)"/>
<path d="M151.319 18.8825L149.112 22.5822C148.398 20.9311 146.973 19.747 144.78 18.9909C144.661 18.952 144.133 18.788 143.701 18.7074C143.416 18.6601 143.131 18.6212 142.844 18.5878L142.885 14.7324C143.131 14.7602 143.378 14.7852 143.618 14.813C144.075 14.877 144.526 14.9465 144.976 15.0382C144.976 15.0382 145.344 15.1299 145.815 15.28C145.856 15.2939 145.903 15.3078 145.947 15.3245C146.008 15.344 146.066 15.3662 146.127 15.3856C146.216 15.4162 146.304 15.4496 146.395 15.4829C146.406 15.4857 146.418 15.4913 146.426 15.4941C148.514 16.2807 150.152 17.4148 151.325 18.8797L151.319 18.8825Z" fill="url(#paint2_linear_1720_2249)"/>
<path d="M139.035 14.6629L139.024 18.5962C138.988 18.599 138.919 18.6073 138.833 18.6184C138.758 18.6295 138.67 18.6434 138.578 18.6629C138.578 18.6629 138.573 18.6629 138.57 18.6629C136.96 19.0048 131.522 20.528 131.354 25.9707V18.4683C131.475 18.3099 133.118 16.2418 136.504 15.1827C136.792 15.091 137.096 15.0048 137.411 14.9353C137.917 14.8214 138.454 14.7241 139.021 14.6602C139.027 14.6602 139.029 14.6602 139.035 14.6602V14.6629Z" fill="url(#paint3_linear_1720_2249)"/>
<path d="M151.831 34.5328C151.41 35.4474 150.918 36.3674 150.348 37.2986C149.88 38.063 149.363 38.8358 148.788 39.6141C148.448 40.0783 148.088 40.5453 147.712 41.0178C147.319 41.507 146.918 41.9879 146.506 42.4605C145.922 43.1332 145.319 43.7892 144.697 44.4285C143.856 45.3208 143.026 46.1463 142.216 46.9107C142.216 46.9107 142.213 46.9163 142.207 46.9191L142.03 47.0858C141.981 47.1331 141.928 47.1804 141.878 47.2276C141.812 47.2888 141.745 47.3471 141.682 47.4083C141.566 47.5167 141.45 47.6195 141.333 47.7252C140.788 48.22 140.249 48.6869 139.723 49.1261C139.654 49.1845 139.582 49.2429 139.513 49.3012C139.499 49.3124 139.486 49.3235 139.472 49.3374C139.45 49.3541 139.425 49.3735 139.4 49.3958C139.159 49.5959 138.919 49.7877 138.681 49.9767C138.642 50.0073 138.603 50.0379 138.565 50.0657C137.187 51.1192 135.549 52.1782 135.436 52.256C135.104 52.1087 133.207 51.2526 131.434 50.1824C135.165 48.0754 137.784 45.621 137.784 45.621C137.995 45.4431 138.194 45.2707 138.382 45.1067C138.418 45.0761 138.454 45.0456 138.487 45.015C138.498 45.0039 138.509 44.9955 138.523 44.9844C138.556 44.9566 138.587 44.926 138.62 44.8982C139.389 44.2172 139.956 43.6724 140.266 43.3639L140.291 43.3389C140.291 43.3389 140.307 43.3222 140.315 43.3166L140.338 43.2944C140.357 43.2777 140.374 43.2582 140.39 43.2443C140.396 43.236 140.401 43.2332 140.409 43.2249C140.426 43.2054 140.445 43.1887 140.459 43.1721C140.465 43.1693 140.468 43.1637 140.473 43.1582C140.509 43.122 140.531 43.0998 140.534 43.0942C141.521 42.2047 142.019 41.6905 142.019 41.6905C142.509 41.1846 142.985 40.6704 143.449 40.1422C143.889 39.6419 144.315 39.1332 144.73 38.6134C144.987 38.291 145.236 37.9685 145.474 37.6544C145.477 37.6489 145.482 37.6433 145.485 37.6377C145.565 37.5321 145.643 37.4265 145.72 37.3209C146.321 36.5008 146.854 35.6975 147.319 34.9109C147.427 34.7274 147.529 34.544 147.632 34.3633L151.833 34.5328H151.831Z" fill="url(#paint4_linear_1720_2249)"/>
<path d="M131.55 54.5864L131.381 54.667C130.924 54.8922 130.498 55.0895 130.106 55.2591H130.1L129.81 55.4036C129.389 55.576 128.963 55.7344 128.532 55.8817C128.526 55.8817 128.521 55.8845 128.515 55.8901C128.51 55.8901 128.504 55.8929 128.499 55.8956C128.496 55.8956 128.49 55.8956 128.488 55.8984C127.633 56.1986 127.152 56.2987 127.138 56.3042C126.452 56.4849 125.749 56.6323 125.035 56.7407C124.593 56.8185 124.134 56.8741 123.683 56.9186C123.26 56.9547 122.836 56.9797 122.405 56.9936C122.195 57.0019 121.982 57.002 121.766 57.002C121.127 57.002 120.488 56.9742 119.86 56.9186C119.401 56.8769 118.953 56.8185 118.502 56.749C112.732 55.8428 107.737 52.5767 104.514 47.9736C104.265 47.6178 104.027 47.2536 103.8 46.8839C103.361 46.1612 102.96 45.4107 102.605 44.6352L104.921 39.5762C105.015 40.0015 105.125 40.424 105.25 40.8409C105.526 41.7638 105.878 42.6533 106.298 43.5038C106.428 43.7651 106.564 44.0237 106.705 44.2794C109.15 48.6601 113.435 51.8707 118.499 52.8463C118.743 52.8991 118.989 52.9408 119.241 52.9798C119.445 53.0103 119.65 53.0381 119.857 53.0604C120.361 53.116 120.878 53.1493 121.393 53.1604C121.44 53.1604 121.489 53.1632 121.539 53.1632C121.589 53.1632 121.639 53.1632 121.689 53.1632H121.929C121.949 53.1632 121.971 53.1632 121.99 53.1632C122.137 53.1632 122.28 53.1577 122.424 53.1521C122.452 53.1521 122.474 53.1521 122.499 53.1493C122.629 53.1438 122.759 53.1382 122.889 53.1271C123.168 53.0993 123.448 53.0632 123.727 53.0187C124.881 52.8519 126.02 52.5545 127.121 52.1681C127.129 52.1681 127.138 52.1625 127.143 52.1598C127.16 52.1542 127.176 52.1486 127.19 52.1431C128.535 53.0437 131.544 54.5892 131.544 54.5892L131.55 54.5864Z" fill="url(#paint5_linear_1720_2249)"/>
<path d="M126.163 44.7664C126.083 44.6941 121.065 40.1466 120.039 33.6505C119.929 32.9389 119.862 32.2078 119.859 31.4518V31.2099C119.859 31.0098 119.859 30.8236 119.859 30.6429V18.6041C122.13 18.4012 123.679 18.5958 123.679 18.5958V35.8214C123.679 39.0959 124.587 42.1563 126.163 44.7664Z" fill="url(#paint6_linear_1720_2249)"/>
<path d="M123.667 13.9345V14.6655C123.667 14.6655 122.212 14.4376 119.822 14.6933V14.3014C119.822 13.9845 119.803 13.6649 119.753 13.348C119.186 9.69826 116.387 6.79351 112.807 6.07635C112.246 5.96516 111.668 5.90401 111.073 5.90401H107.621L109.054 2.0625H111.264C111.615 2.0625 111.964 2.0764 112.31 2.1042C118.483 2.62121 123.371 7.67188 123.67 13.9317L123.667 13.9345Z" fill="url(#paint7_linear_1720_2249)"/>
</g>
<defs>
<linearGradient id="paint0_linear_1720_2249" x1="144.129" y1="9.41468" x2="144.129" y2="48.9472" gradientUnits="userSpaceOnUse">
<stop stop-color="#8FF5F7"/>
<stop offset="1" stop-color="#15C9FA"/>
</linearGradient>
<linearGradient id="paint1_linear_1720_2249" x1="131.344" y1="9.41556" x2="131.344" y2="48.9481" gradientUnits="userSpaceOnUse">
<stop stop-color="#8FF5F7"/>
<stop offset="1" stop-color="#15C9FA"/>
</linearGradient>
<linearGradient id="paint2_linear_1720_2249" x1="149.955" y1="18.9131" x2="142.73" y2="18.4534" gradientUnits="userSpaceOnUse">
<stop stop-color="#58C4C7" stop-opacity="0"/>
<stop offset="1" stop-color="#00688A"/>
</linearGradient>
<linearGradient id="paint3_linear_1720_2249" x1="131.47" y1="20.3196" x2="139.298" y2="20.3196" gradientUnits="userSpaceOnUse">
<stop stop-color="#58C4C7" stop-opacity="0"/>
<stop offset="1" stop-color="#00688A"/>
</linearGradient>
<linearGradient id="paint4_linear_1720_2249" x1="144.113" y1="41.3764" x2="133.106" y2="51.1572" gradientUnits="userSpaceOnUse">
<stop stop-color="#58C4C7" stop-opacity="0"/>
<stop offset="1" stop-color="#00688A"/>
</linearGradient>
<linearGradient id="paint5_linear_1720_2249" x1="113.999" y1="51.3981" x2="120.259" y2="45.0745" gradientUnits="userSpaceOnUse">
<stop stop-color="#58C4C7" stop-opacity="0"/>
<stop offset="1" stop-color="#00688A"/>
</linearGradient>
<linearGradient id="paint6_linear_1720_2249" x1="123.01" y1="31.9577" x2="123.01" y2="17.3977" gradientUnits="userSpaceOnUse">
<stop stop-color="#58C4C7" stop-opacity="0"/>
<stop offset="1" stop-color="#00688A"/>
</linearGradient>
<linearGradient id="paint7_linear_1720_2249" x1="115.643" y1="7.21324" x2="115.643" y2="14.8462" gradientUnits="userSpaceOnUse">
<stop stop-color="#58C4C7" stop-opacity="0"/>
<stop offset="1" stop-color="#00688A"/>
</linearGradient>
<clipPath id="clip0_1720_2249">
<rect width="162" height="57" fill="white"/>
</clipPath>
</defs>
</svg>
