<svg width="32" height="32" viewBox="0 0 32 32" fill="none" xmlns="http://www.w3.org/2000/svg">
<g clip-path="url(#clip0_2280_43560)">
<path d="M3.65117 21.4484V5.84844C3.65117 5.33127 3.85662 4.83528 4.22231 4.46958C4.58801 4.10388 5.084 3.89844 5.60117 3.89844H27.0512C27.5683 3.89844 28.0643 4.10388 28.43 4.46958C28.7957 4.83528 29.0012 5.33127 29.0012 5.84844V21.4484M20.208 21.4484C20.0566 21.4486 19.9074 21.484 19.7721 21.5516C19.6367 21.6193 19.5189 21.7175 19.428 21.8384C19.0688 22.3224 18.6013 22.7156 18.0629 22.9865C17.5245 23.2574 16.9302 23.3985 16.3275 23.3985C15.7248 23.3985 15.1304 23.2574 14.592 22.9865C14.0536 22.7156 13.5862 22.3224 13.227 21.8384C13.136 21.7175 13.0182 21.6193 12.8829 21.5516C12.7475 21.484 12.5983 21.4486 12.447 21.4484H1.70117V23.3984C1.70117 24.4328 2.11206 25.4248 2.84346 26.1562C3.57485 26.8875 4.56683 27.2984 5.60117 27.2984H27.0512C28.0855 27.2984 29.0775 26.8875 29.8089 26.1562C30.5403 25.4248 30.9512 24.4328 30.9512 23.3984V21.4484H20.208ZM21.2012 11.6984C21.2012 11.4399 21.0985 11.1919 20.9156 11.009C20.7328 10.8262 20.4848 10.7234 20.2262 10.7234H18.2762V8.77344C18.2762 8.51485 18.1735 8.26686 17.9906 8.08401C17.8078 7.90116 17.5598 7.79844 17.3012 7.79844H15.3512C15.0926 7.79844 14.8446 7.90116 14.6617 8.08401C14.4789 8.26686 14.3762 8.51485 14.3762 8.77344V10.7234H12.4262C12.1676 10.7234 11.9196 10.8262 11.7367 11.009C11.5539 11.1919 11.4512 11.4399 11.4512 11.6984V13.6484C11.4512 13.907 11.5539 14.155 11.7367 14.3379C11.9196 14.5207 12.1676 14.6234 12.4262 14.6234H14.3762V16.5734C14.3762 16.832 14.4789 17.08 14.6617 17.2629C14.8446 17.4457 15.0926 17.5484 15.3512 17.5484H17.3012C17.5598 17.5484 17.8078 17.4457 17.9906 17.2629C18.1735 17.08 18.2762 16.832 18.2762 16.5734V14.6234H20.2262C20.4848 14.6234 20.7328 14.5207 20.9156 14.3379C21.0985 14.155 21.2012 13.907 21.2012 13.6484V11.6984Z" stroke="#061F42" stroke-width="2" stroke-linecap="round" stroke-linejoin="round"/>
</g>
<defs>
<clipPath id="clip0_2280_43560">
<rect width="31.2" height="31.2" fill="white" transform="translate(0.400391)"/>
</clipPath>
</defs>
</svg>
