<svg width="32" height="32" viewBox="0 0 32 32" fill="none" xmlns="http://www.w3.org/2000/svg">
<g clip-path="url(#clip0_4052_11884)">
<path d="M11.2326 23.6726C11.7848 23.6726 12.2326 23.2248 12.2326 22.6726C12.2326 22.1203 11.7848 21.6726 11.2326 21.6726V22.6726V23.6726ZM1.69922 20.7659H0.699219H1.69922ZM1.69922 5.51255H0.699219H1.69922ZM3.60589 3.60589L3.60589 2.60589L3.60589 3.60589ZM20.7659 3.60589V2.60589V3.60589ZM22.6726 5.51255L23.6726 5.51255L22.6726 5.51255ZM21.6726 11.2326C21.6726 11.7848 22.1203 12.2326 22.6726 12.2326C23.2248 12.2326 23.6726 11.7848 23.6726 11.2326H22.6726H21.6726ZM6.41922 5.51255C6.41922 6.06484 6.86693 6.51255 7.41922 6.51255C7.9715 6.51255 8.41922 6.06484 8.41922 5.51255H7.41922H6.41922ZM8.41922 1.69922C8.41922 1.14693 7.9715 0.699219 7.41922 0.699219C6.86693 0.699219 6.41922 1.14693 6.41922 1.69922H7.41922H8.41922ZM15.9526 5.51255C15.9526 6.06484 16.4003 6.51255 16.9526 6.51255C17.5048 6.51255 17.9526 6.06484 17.9526 5.51255H16.9526H15.9526ZM17.9526 1.69922C17.9526 1.14693 17.5048 0.699219 16.9526 0.699219C16.4003 0.699219 15.9526 1.14693 15.9526 1.69922H16.9526H17.9526ZM15.0459 22.6726H14.0459H15.0459ZM22.6726 15.0459V14.0459V15.0459ZM23.6726 18.8592C23.6726 18.3069 23.2248 17.8592 22.6726 17.8592C22.1203 17.8592 21.6726 18.3069 21.6726 18.8592H22.6726H23.6726ZM21.6726 26.4859C21.6726 27.0382 22.1203 27.4859 22.6726 27.4859C23.2248 27.4859 23.6726 27.0382 23.6726 26.4859H22.6726H21.6726ZM18.8592 21.6726C18.3069 21.6726 17.8592 22.1203 17.8592 22.6726C17.8592 23.2248 18.3069 23.6726 18.8592 23.6726V22.6726V21.6726ZM26.4859 23.6726C27.0382 23.6726 27.4859 23.2248 27.4859 22.6726C27.4859 22.1203 27.0382 21.6726 26.4859 21.6726V22.6726V23.6726ZM11.2326 22.6726V21.6726H3.60589V22.6726V23.6726H11.2326V22.6726ZM3.60589 22.6726V21.6726C3.36542 21.6726 3.13481 21.577 2.96478 21.407L2.25767 22.1141L1.55056 22.8212C2.09567 23.3663 2.83499 23.6726 3.60589 23.6726V22.6726ZM2.25767 22.1141L2.96478 21.407C2.79474 21.237 2.69922 21.0063 2.69922 20.7659H1.69922H0.699219C0.699219 21.5368 1.00546 22.2761 1.55056 22.8212L2.25767 22.1141ZM1.69922 20.7659H2.69922V5.51255H1.69922H0.699219V20.7659H1.69922ZM1.69922 5.51255H2.69922C2.69922 5.27209 2.79474 5.04148 2.96478 4.87144L2.25767 4.16434L1.55056 3.45723C1.00546 4.00233 0.699219 4.74166 0.699219 5.51255H1.69922ZM2.25767 4.16434L2.96478 4.87144C3.13481 4.70141 3.36542 4.60589 3.60589 4.60589L3.60589 3.60589L3.60589 2.60589C2.83499 2.60589 2.09567 2.91212 1.55056 3.45723L2.25767 4.16434ZM3.60589 3.60589V4.60589H20.7659V3.60589V2.60589H3.60589V3.60589ZM20.7659 3.60589L20.7659 4.60589C21.0063 4.60589 21.237 4.70141 21.407 4.87144L22.1141 4.16434L22.8212 3.45723C22.2761 2.91212 21.5368 2.60589 20.7659 2.60589L20.7659 3.60589ZM22.1141 4.16434L21.407 4.87144C21.577 5.04148 21.6726 5.27209 21.6726 5.51255L22.6726 5.51255L23.6726 5.51255C23.6726 4.74166 23.3663 4.00233 22.8212 3.45723L22.1141 4.16434ZM22.6726 5.51255H21.6726V11.2326H22.6726H23.6726V5.51255H22.6726ZM1.69922 9.32589V10.3259H22.6726V9.32589V8.32589H1.69922V9.32589ZM7.41922 5.51255H8.41922V1.69922H7.41922H6.41922V5.51255H7.41922ZM16.9526 5.51255H17.9526V1.69922H16.9526H15.9526V5.51255H16.9526ZM15.0459 22.6726H14.0459C14.0459 24.9605 14.9548 27.1547 16.5726 28.7725L17.2797 28.0654L17.9868 27.3583C16.7441 26.1156 16.0459 24.4301 16.0459 22.6726H15.0459ZM17.2797 28.0654L16.5726 28.7725C18.1904 30.3903 20.3846 31.2992 22.6726 31.2992V30.2992V29.2992C20.9151 29.2992 19.2295 28.6011 17.9868 27.3583L17.2797 28.0654ZM22.6726 30.2992V31.2992C24.9605 31.2992 27.1547 30.3903 28.7725 28.7725L28.0654 28.0654L27.3583 27.3583C26.1156 28.6011 24.4301 29.2992 22.6726 29.2992V30.2992ZM28.0654 28.0654L28.7725 28.7725C30.3903 27.1547 31.2992 24.9605 31.2992 22.6726H30.2992H29.2992C29.2992 24.4301 28.6011 26.1156 27.3583 27.3583L28.0654 28.0654ZM30.2992 22.6726H31.2992C31.2992 20.3846 30.3903 18.1904 28.7725 16.5726L28.0654 17.2797L27.3583 17.9868C28.6011 19.2295 29.2992 20.9151 29.2992 22.6726H30.2992ZM28.0654 17.2797L28.7725 16.5726C27.1547 14.9548 24.9605 14.0459 22.6726 14.0459V15.0459V16.0459C24.4301 16.0459 26.1156 16.7441 27.3583 17.9868L28.0654 17.2797ZM22.6726 15.0459V14.0459C20.3846 14.0459 18.1904 14.9548 16.5726 16.5726L17.2797 17.2797L17.9868 17.9868C19.2295 16.7441 20.9151 16.0459 22.6726 16.0459V15.0459ZM17.2797 17.2797L16.5726 16.5726C14.9548 18.1904 14.0459 20.3846 14.0459 22.6726H15.0459H16.0459C16.0459 20.9151 16.7441 19.2295 17.9868 17.9868L17.2797 17.2797ZM22.6726 18.8592H21.6726V26.4859H22.6726H23.6726V18.8592H22.6726ZM18.8592 22.6726V23.6726H26.4859V22.6726V21.6726H18.8592V22.6726Z" fill="#061F42"/>
</g>
<defs>
<clipPath id="clip0_4052_11884">
<rect width="31.2" height="31.2" fill="white" transform="translate(0.398438)"/>
</clipPath>
</defs>
</svg>
