<svg width="32" height="32" viewBox="0 0 32 32" fill="none" xmlns="http://www.w3.org/2000/svg">
<g clip-path="url(#clip0_4052_9445)">
<path d="M11.2326 22.8718H3.60589C3.10021 22.8718 2.61524 22.6709 2.25767 22.3133C1.9001 21.9558 1.69922 21.4708 1.69922 20.9651V5.71177C1.69922 5.20609 1.9001 4.72112 2.25767 4.36355C2.61524 4.00598 3.10021 3.8051 3.60589 3.8051H20.7659C21.2716 3.8051 21.7565 4.00598 22.1141 4.36355C22.4717 4.72112 22.6726 5.20609 22.6726 5.71177V11.4318M1.69922 9.52511H22.6726M7.41922 5.71177V1.89844M16.9526 5.71177V1.89844M26.0435 22.8719H22.6726V19.5021M15.0459 22.8718C15.0459 24.8945 15.8494 26.8344 17.2797 28.2646C18.71 29.6949 20.6498 30.4984 22.6726 30.4984C24.6953 30.4984 26.6351 29.6949 28.0654 28.2646C29.4957 26.8344 30.2992 24.8945 30.2992 22.8718C30.2992 20.8491 29.4957 18.9092 28.0654 17.4789C26.6351 16.0486 24.6953 15.2451 22.6726 15.2451C20.6498 15.2451 18.71 16.0486 17.2797 17.4789C15.8494 18.9092 15.0459 20.8491 15.0459 22.8718Z" stroke="#1F57A4" stroke-width="2" stroke-linecap="round" stroke-linejoin="round"/>
</g>
<defs>
<clipPath id="clip0_4052_9445">
<rect width="31.2" height="31.2" fill="white" transform="translate(0.398438 0.199219)"/>
</clipPath>
</defs>
</svg>
