<svg width="32" height="32" viewBox="0 0 32 32" fill="none" xmlns="http://www.w3.org/2000/svg">
<g clip-path="url(#clip0_4052_718)">
<path d="M11.2326 23.8718C11.7848 23.8718 12.2326 23.4241 12.2326 22.8718C12.2326 22.3195 11.7848 21.8718 11.2326 21.8718V22.8718V23.8718ZM1.69922 20.9651H0.699219H1.69922ZM1.69922 5.71177H0.699219H1.69922ZM3.60589 3.8051L3.60589 2.8051L3.60589 3.8051ZM20.7659 3.8051V2.8051V3.8051ZM22.6726 5.71177L23.6726 5.71177L22.6726 5.71177ZM21.6726 11.4318C21.6726 11.9841 22.1203 12.4318 22.6726 12.4318C23.2248 12.4318 23.6726 11.9841 23.6726 11.4318H22.6726H21.6726ZM6.41922 5.71177C6.41922 6.26406 6.86693 6.71177 7.41922 6.71177C7.9715 6.71177 8.41922 6.26406 8.41922 5.71177H7.41922H6.41922ZM8.41922 1.89844C8.41922 1.34615 7.9715 0.898438 7.41922 0.898438C6.86693 0.898438 6.41922 1.34615 6.41922 1.89844H7.41922H8.41922ZM15.9526 5.71177C15.9526 6.26406 16.4003 6.71177 16.9526 6.71177C17.5048 6.71177 17.9526 6.26406 17.9526 5.71177H16.9526H15.9526ZM17.9526 1.89844C17.9526 1.34615 17.5048 0.898438 16.9526 0.898438C16.4003 0.898438 15.9526 1.34615 15.9526 1.89844H16.9526H17.9526ZM15.0459 22.8718H14.0459H15.0459ZM22.6726 15.2451V14.2451V15.2451ZM23.6726 19.0584C23.6726 18.5062 23.2248 18.0584 22.6726 18.0584C22.1203 18.0584 21.6726 18.5062 21.6726 19.0584H22.6726H23.6726ZM21.6726 26.6851C21.6726 27.2374 22.1203 27.6851 22.6726 27.6851C23.2248 27.6851 23.6726 27.2374 23.6726 26.6851H22.6726H21.6726ZM18.8592 21.8718C18.3069 21.8718 17.8592 22.3195 17.8592 22.8718C17.8592 23.4241 18.3069 23.8718 18.8592 23.8718V22.8718V21.8718ZM26.4859 23.8718C27.0382 23.8718 27.4859 23.4241 27.4859 22.8718C27.4859 22.3195 27.0382 21.8718 26.4859 21.8718V22.8718V23.8718ZM11.2326 22.8718V21.8718H3.60589V22.8718V23.8718H11.2326V22.8718ZM3.60589 22.8718V21.8718C3.36542 21.8718 3.13481 21.7762 2.96478 21.6062L2.25767 22.3133L1.55056 23.0204C2.09567 23.5655 2.83499 23.8718 3.60589 23.8718V22.8718ZM2.25767 22.3133L2.96478 21.6062C2.79474 21.4362 2.69922 21.2056 2.69922 20.9651H1.69922H0.699219C0.699219 21.736 1.00546 22.4753 1.55056 23.0204L2.25767 22.3133ZM1.69922 20.9651H2.69922V5.71177H1.69922H0.699219V20.9651H1.69922ZM1.69922 5.71177H2.69922C2.69922 5.47131 2.79474 5.24069 2.96478 5.07066L2.25767 4.36355L1.55056 3.65645C1.00546 4.20155 0.699219 4.94088 0.699219 5.71177H1.69922ZM2.25767 4.36355L2.96478 5.07066C3.13481 4.90063 3.36542 4.8051 3.60589 4.8051L3.60589 3.8051L3.60589 2.8051C2.83499 2.8051 2.09567 3.11134 1.55056 3.65645L2.25767 4.36355ZM3.60589 3.8051V4.8051H20.7659V3.8051V2.8051H3.60589V3.8051ZM20.7659 3.8051L20.7659 4.8051C21.0063 4.8051 21.237 4.90063 21.407 5.07066L22.1141 4.36355L22.8212 3.65645C22.2761 3.11134 21.5368 2.8051 20.7659 2.8051L20.7659 3.8051ZM22.1141 4.36355L21.407 5.07066C21.577 5.24069 21.6726 5.47131 21.6726 5.71177L22.6726 5.71177L23.6726 5.71177C23.6726 4.94087 23.3663 4.20155 22.8212 3.65645L22.1141 4.36355ZM22.6726 5.71177H21.6726V11.4318H22.6726H23.6726V5.71177H22.6726ZM1.69922 9.5251V10.5251H22.6726V9.5251V8.5251H1.69922V9.5251ZM7.41922 5.71177H8.41922V1.89844H7.41922H6.41922V5.71177H7.41922ZM16.9526 5.71177H17.9526V1.89844H16.9526H15.9526V5.71177H16.9526ZM15.0459 22.8718H14.0459C14.0459 25.1597 14.9548 27.3539 16.5726 28.9717L17.2797 28.2646L17.9868 27.5575C16.7441 26.3148 16.0459 24.6293 16.0459 22.8718H15.0459ZM17.2797 28.2646L16.5726 28.9717C18.1904 30.5896 20.3846 31.4984 22.6726 31.4984V30.4984V29.4984C20.9151 29.4984 19.2295 28.8003 17.9868 27.5575L17.2797 28.2646ZM22.6726 30.4984V31.4984C24.9605 31.4984 27.1547 30.5896 28.7725 28.9717L28.0654 28.2646L27.3583 27.5575C26.1156 28.8003 24.4301 29.4984 22.6726 29.4984V30.4984ZM28.0654 28.2646L28.7725 28.9717C30.3903 27.3539 31.2992 25.1597 31.2992 22.8718H30.2992H29.2992C29.2992 24.6293 28.6011 26.3148 27.3583 27.5575L28.0654 28.2646ZM30.2992 22.8718H31.2992C31.2992 20.5838 30.3903 18.3896 28.7725 16.7718L28.0654 17.4789L27.3583 18.186C28.6011 19.4288 29.2992 21.1143 29.2992 22.8718H30.2992ZM28.0654 17.4789L28.7725 16.7718C27.1547 15.154 24.9605 14.2451 22.6726 14.2451V15.2451V16.2451C24.4301 16.2451 26.1156 16.9433 27.3583 18.186L28.0654 17.4789ZM22.6726 15.2451V14.2451C20.3846 14.2451 18.1904 15.154 16.5726 16.7718L17.2797 17.4789L17.9868 18.186C19.2295 16.9433 20.9151 16.2451 22.6726 16.2451V15.2451ZM17.2797 17.4789L16.5726 16.7718C14.9548 18.3896 14.0459 20.5838 14.0459 22.8718H15.0459H16.0459C16.0459 21.1143 16.7441 19.4288 17.9868 18.186L17.2797 17.4789ZM22.6726 19.0584H21.6726V26.6851H22.6726H23.6726V19.0584H22.6726ZM18.8592 22.8718V23.8718H26.4859V22.8718V21.8718H18.8592V22.8718Z" fill="#00ABDA"/>
</g>
<defs>
<clipPath id="clip0_4052_718">
<rect width="31.2" height="31.2" fill="white" transform="translate(0.398438 0.199219)"/>
</clipPath>
</defs>
</svg>
