<svg width="47" height="34" viewBox="0 0 47 34" fill="none" xmlns="http://www.w3.org/2000/svg">
<path d="M35.5332 2.35146C35.5332 3.51419 34.6807 4.46906 33.5633 4.66263L32.9207 7.67926C32.8367 8.0664 32.501 8.33013 32.0957 8.33013H28.6176C28.2399 7.74941 27.8346 7.19597 27.3887 6.66982H31.4124L31.9161 4.33135C31.2459 3.91563 30.7986 3.1972 30.7986 2.35276C30.7986 1.05231 31.861 0 33.1738 0C34.4866 0 35.5345 1.05231 35.5345 2.35276L35.5332 2.35146Z" fill="#044DB3"/>
<path d="M42.8108 8.31592C42.8108 9.61636 41.7629 10.6687 40.4501 10.6687C40.0593 10.6687 39.696 10.5582 39.3747 10.4062L36.6087 12.8694C36.4553 13.0071 36.2598 13.0903 36.05 13.0903H30.699C30.56 12.5226 30.3777 11.9691 30.1823 11.43H35.7287L38.2428 9.17465C38.1445 8.91222 38.075 8.62121 38.075 8.31721C38.075 7.02976 39.1373 5.97875 40.4501 5.97875C41.7629 5.97875 42.8108 7.03106 42.8108 8.31721V8.31592Z" fill="#044DB3"/>
<path d="M46.5 17.0059C46.5 18.2933 45.4521 19.3444 44.1393 19.3444C43.1189 19.3444 42.2677 18.7221 41.932 17.8361H31.1606C31.175 17.5593 31.1881 17.2826 31.1881 17.0059C31.1881 16.7292 31.1737 16.4525 31.1606 16.1757L41.932 16.1614C42.2677 15.2897 43.1333 14.6531 44.1393 14.6531C45.4521 14.6531 46.5 15.7055 46.5 17.0059Z" fill="#044DB3"/>
<path d="M35.5332 31.6615C35.5332 32.949 34.4709 34 33.1725 34C31.8741 34 30.7973 32.9477 30.7973 31.6615C30.7973 30.8171 31.2445 30.0844 31.9147 29.6687L31.4111 27.3302H27.3874C27.8346 26.804 28.253 26.2506 28.6163 25.6699H32.0944C32.4997 25.6699 32.8354 25.9466 32.9194 26.3337L33.562 29.3504C34.6794 29.5296 35.5319 30.4988 35.5319 31.6615H35.5332Z" fill="#044DB3"/>
<path d="M42.8109 25.6828C42.8109 26.9833 41.763 28.0356 40.4501 28.0356C39.1373 28.0356 38.075 26.9833 38.075 25.6828C38.075 25.3918 38.1445 25.1021 38.2428 24.8384L35.7287 22.5831H30.1679C30.3777 22.0439 30.5587 21.4892 30.699 20.9228H36.05C36.2598 20.9228 36.4553 20.9916 36.6087 21.1306L39.3747 23.6081C39.696 23.4418 40.0593 23.3457 40.4501 23.3457C41.7643 23.3457 42.8109 24.398 42.8109 25.6841V25.6828Z" fill="#044DB3"/>
<path d="M14.9384 2.701C6.96444 2.701 0.5 9.10449 0.5 17.0033C0.5 24.9021 6.96444 31.3056 14.9384 31.3056C22.9124 31.3056 29.3782 24.9021 29.3782 17.0033C29.3782 9.10449 22.9137 2.701 14.9384 2.701ZM23.2364 19.282C23.2364 19.6367 22.9413 19.9303 22.5504 19.9303H17.888V24.5643C17.888 24.919 17.5759 25.2295 17.2178 25.2295H12.6328C12.2747 25.2295 11.977 24.9203 11.977 24.5643V19.9303H7.29888C6.9251 19.9303 6.64312 19.6367 6.64312 19.282V14.7402C6.64312 14.3699 6.9251 14.0919 7.29888 14.0919H11.977V9.45786C11.977 9.0863 12.2747 8.77841 12.6328 8.77841H17.2178C17.5759 8.77841 17.888 9.0863 17.888 9.45786V14.0919H22.5504C22.9413 14.0919 23.2364 14.3699 23.2364 14.7402V19.282Z" fill="white"/>
</svg>
