<svg width="51" height="34" viewBox="0 0 51 34" fill="none" xmlns="http://www.w3.org/2000/svg">
<path d="M10.3664 11.184C10.3664 9.66061 11.6096 8.42493 13.1423 8.42493H20.3863C21.9079 8.42493 23.1622 9.6496 23.1622 11.184V13.9682H27.3394V11.184C27.3394 9.66061 28.5826 8.42493 30.1152 8.42493H37.3593C38.8936 8.42493 40.1352 9.66061 40.1352 11.184V13.9682H44.7711V0.839506C44.7711 0.383595 44.3851 0 43.9012 0H41.2455C40.7615 0 40.3756 0.383595 40.3756 0.839506C40.3756 1.91326 39.4993 2.78263 38.4206 2.78263H12.081C11.0007 2.78263 10.126 1.91168 10.126 0.839506C10.126 0.383595 9.74007 0 9.25766 0H6.60202C6.11961 0 5.7321 0.383595 5.7321 0.839506V13.9682H10.368V11.184H10.3664Z" fill="#044DB3"/>
<path d="M45.3436 16.0905H5.15637C2.44695 16.0905 0.25 18.2742 0.25 20.9672V24.4777H50.25V20.9672C50.25 18.2742 48.0531 16.0905 45.3436 16.0905Z" fill="white"/>
<path d="M0.25 33.1401C0.25 33.6148 0.637511 34 1.11518 34H3.78189C4.25955 34 4.64706 33.6148 4.64706 33.1401C4.64706 31.6466 5.86496 30.436 7.36755 30.436H43.1325C44.635 30.436 45.8529 31.6466 45.8529 33.1401C45.8529 33.6148 46.2405 34 46.7181 34H49.3848C49.8625 34 50.25 33.6148 50.25 33.1401V26.5906H0.25V33.1401Z" fill="#044DB3"/>
</svg>
