<svg width="35" height="32" viewBox="0 0 35 32" fill="none" xmlns="http://www.w3.org/2000/svg">
<path d="M4.21601 20.5561L10.5217 17.9285L17.3429 19.7942C17.9296 19.9544 18.5255 20.0004 19.1042 19.9413C20.2644 19.8231 21.356 19.2818 22.1549 18.3871L26.6677 13.4734C27.8252 12.1675 27.8173 10.206 26.6492 8.91057C26.0217 8.21425 25.1581 7.81091 24.2208 7.77544C23.2848 7.74391 22.3922 8.07631 21.679 8.75423L16.2447 14.1658L10.8408 13.2277C10.4163 13.1555 9.9812 13.2159 9.59492 13.4064L2.53378 16.8696C1.54897 17.3531 1.1271 18.5276 1.58193 19.5248C2.03677 20.5194 3.19956 20.9792 4.21601 20.5548V20.5561Z" fill="#044DB3"/>
<path d="M33.3954 7.61655C34.9682 5.89941 34.847 3.23632 33.1239 1.66764C31.4008 0.100265 28.7284 0.221142 27.1556 1.93829C25.5828 3.65543 25.7041 6.31852 27.4272 7.8872C29.1503 9.45458 31.8226 9.3337 33.3954 7.61655Z" fill="#044DB3"/>
<path d="M10.3253 31.4332C9.1638 31.4332 8.21984 30.4912 8.21984 29.335V25.3765L3.14548 27.6888C2.95828 27.7729 2.76185 27.8268 2.55882 27.8478C2.49554 27.8544 2.43225 27.857 2.36897 27.857C1.5529 27.857 0.835729 27.3354 0.58524 26.5577C0.29652 25.663 0.761897 24.6763 1.66893 24.2624L9.99041 20.4721C10.2356 20.3604 10.498 20.3039 10.7682 20.3039C10.9344 20.3039 11.1005 20.3263 11.2613 20.3696L17.774 22.142C18.2908 22.2825 18.8234 22.3535 19.3587 22.3535C21.1741 22.3535 22.8747 21.5521 24.0243 20.1555L30.9457 11.801C31.3017 11.3714 31.8277 11.1244 32.388 11.1244C32.9483 11.1244 33.444 11.3595 33.8039 11.7694C34.3972 12.4434 34.3853 13.5076 33.7762 14.242L29.5522 19.3409V29.335C29.5522 30.4925 28.6083 31.4332 27.4468 31.4332H10.3253Z" fill="white"/>
</svg>
