<svg width="45" height="34" viewBox="0 0 45 34" fill="none" xmlns="http://www.w3.org/2000/svg">
<path d="M33.4326 5.84919H29.7017C29.281 5.84919 28.9393 6.20492 28.9393 6.62544V10.7468H24.7876C24.3656 10.7468 24.0085 11.1025 24.0085 11.5231V15.2404C24.0085 15.6774 24.3643 16.0167 24.7876 16.0167H28.9393V20.138C28.9393 20.5751 29.281 20.9143 29.7017 20.9143H33.4326C33.8712 20.9143 34.2117 20.5751 34.2117 20.138V16.0167H38.348C38.7867 16.0167 39.1271 15.6774 39.1271 15.2404V11.5231C39.1271 11.1025 38.7867 10.7468 38.348 10.7468H34.2117V6.62544C34.2117 6.20492 33.8712 5.84919 33.4326 5.84919Z" fill="#044DB3"/>
<path d="M31.5658 0C27.4652 0 23.784 1.84597 21.3142 4.74135C21.8268 5.39563 22.2348 6.11598 22.537 6.88969C24.5746 4.11374 27.8604 2.29317 31.5671 2.29317C37.7053 2.29317 42.7011 7.26956 42.7011 13.3855C42.7011 19.5015 37.7066 24.4779 31.5671 24.4779C30.4896 24.4779 29.4505 24.3204 28.4648 24.0332C28.7007 24.8324 28.8461 25.6569 28.8984 26.4954C29.7654 26.6783 30.6592 26.7698 31.5658 26.7698C38.9791 26.7698 45 20.758 45 13.3855C45 6.01307 38.9791 0 31.5658 0Z" fill="white"/>
<path d="M20.7046 26.0278C21.1866 26.0278 21.5793 25.6365 21.5793 25.1563C21.5793 24.6761 21.1866 24.2848 20.7046 24.2848C20.2227 24.2848 19.8299 24.6761 19.8299 25.1563C19.8299 25.6365 20.2227 26.0278 20.7046 26.0278Z" fill="#044DB3"/>
<path d="M19.8198 18.1396C19.5852 18.3492 19.3391 18.5423 19.0879 18.7062C19.7739 19.4647 21.1089 21.7287 21.3142 23.036C22.2513 23.2989 22.9246 24.1743 22.9246 25.1538C22.9246 26.3734 21.9288 27.3657 20.7047 27.3657C19.4806 27.3657 18.4911 26.3734 18.4911 25.1538C18.4911 24.2315 19.0892 23.3968 19.9613 23.0817C19.7445 22.0259 18.4197 19.9424 17.9225 19.4228C16.5161 20.1698 14.9235 20.5611 13.3067 20.5611C11.6899 20.5611 10.2376 20.199 8.86688 19.5104C8.32753 20.3629 7.47832 21.9739 7.33169 23.9227C9.11297 24.2619 10.3944 25.8017 10.3944 27.6172V30.0451C10.3944 30.4186 10.0897 30.7159 9.72118 30.7159H8.03425C7.66576 30.7159 7.36102 30.4186 7.36102 30.0451C7.36102 29.6716 7.65938 29.3793 8.03425 29.3793H9.04794V27.6172C9.04794 26.2744 7.95265 25.1843 6.60617 25.1843C5.25969 25.1843 4.16313 26.2756 4.16313 27.6172V29.3793H5.18828C5.55806 29.3793 5.8628 29.6766 5.8628 30.0451C5.8628 30.4135 5.55168 30.7159 5.18828 30.7159H3.48988C3.12649 30.7159 2.82302 30.4122 2.82302 30.0451V27.6172C2.82302 25.7852 4.17587 24.2086 5.98648 23.9049C6.12674 21.763 6.97594 19.983 7.70274 18.8269C7.39799 18.6287 7.09963 18.4013 6.80126 18.132C4.89247 18.71 3.16984 19.9005 1.95086 21.4936C0.673238 23.163 0 25.1475 0 27.2424V32.0625C0 33.131 0.873427 34 1.94449 34H24.6778C25.7502 34 26.6223 33.131 26.6223 32.0625V27.2424C26.6223 25.1475 25.9491 23.163 24.6715 21.4936C23.4525 19.9005 21.7311 18.71 19.8211 18.1371L19.8198 18.1396Z" fill="white"/>
<path d="M13.3106 18.2819C17.54 18.2819 20.9814 14.8529 20.9814 10.6388C20.9814 6.42471 17.54 2.99575 13.3106 2.99575C9.08115 2.99575 5.63972 6.42471 5.63972 10.6388C5.63972 14.8529 9.08115 18.2819 13.3106 18.2819Z" fill="white"/>
</svg>
