<svg width="24" height="24" viewBox="0 0 24 24" fill="none" xmlns="http://www.w3.org/2000/svg">
<path d="M19.5 22C20.3284 22 21 21.3284 21 20.5C21 19.6716 20.3284 19 19.5 19C18.6716 19 18 19.6716 18 20.5C18 21.3284 18.6716 22 19.5 22Z" fill="#061F42" stroke="#061F42" stroke-width="1.5" stroke-linecap="round" stroke-linejoin="round"/>
<path d="M9.5 22C10.3284 22 11 21.3284 11 20.5C11 19.6716 10.3284 19 9.5 19C8.67157 19 8 19.6716 8 20.5C8 21.3284 8.67157 22 9.5 22Z" fill="#061F42" stroke="#061F42" stroke-width="1.5" stroke-linecap="round" stroke-linejoin="round"/>
<path d="M5 4H22L20 15H7L5 4ZM5 4C4.83333 3.33333 4 2 2 2" stroke="#061F42" stroke-width="1.5" stroke-linecap="round" stroke-linejoin="round"/>
<path d="M20 15H7H5.23077C3.44646 15 2.5 15.7812 2.5 17C2.5 18.2188 3.44646 19 5.23077 19H19.5" stroke="#061F42" stroke-width="1.5" stroke-linecap="round" stroke-linejoin="round"/>
<path d="M24 7C24 10.866 20.866 14 17 14C13.134 14 10 10.866 10 7C10 3.13401 13.134 0 17 0C20.866 0 24 3.13401 24 7Z" fill="#00ABDA"/>
<path d="M14.5305 10V9.00284L16.8604 6.84553C17.0586 6.65376 17.2248 6.48118 17.359 6.32777C17.4954 6.17436 17.5987 6.02415 17.669 5.87713C17.7393 5.72798 17.7745 5.56712 17.7745 5.39453C17.7745 5.20277 17.7308 5.03764 17.6435 4.89915C17.5561 4.75852 17.4368 4.65092 17.2855 4.57635C17.1342 4.49964 16.9627 4.46129 16.771 4.46129C16.5707 4.46129 16.396 4.50178 16.2468 4.58274C16.0977 4.66371 15.9826 4.77983 15.9016 4.93111C15.8207 5.08239 15.7802 5.26243 15.7802 5.47124H14.4666C14.4666 5.04297 14.5636 4.67116 14.7575 4.35582C14.9513 4.04048 15.223 3.79652 15.5724 3.62393C15.9219 3.45135 16.3246 3.36506 16.7805 3.36506C17.2493 3.36506 17.6573 3.44815 18.0046 3.61435C18.354 3.77841 18.6257 4.00639 18.8196 4.2983C19.0135 4.5902 19.1104 4.92472 19.1104 5.30185C19.1104 5.54901 19.0614 5.79297 18.9634 6.03374C18.8675 6.2745 18.696 6.5419 18.4489 6.83594C18.2017 7.12784 17.8533 7.47834 17.4038 7.88743L16.4482 8.82386V8.86861H19.1967V10H14.5305Z" fill="white"/>
</svg>
