<svg width="14" height="15" viewBox="0 0 14 15" fill="none" xmlns="http://www.w3.org/2000/svg">
<path d="M12.3555 10.9834C12.2847 11.5558 12.2537 11.8042 11.9893 12.3623L7.92871 13.2002C8.02205 12.597 8.14641 12.1316 8.34863 11.8525L12.3555 10.9834ZM6.69922 7.03418L7.91309 6.77051V2.93652C8.36507 2.42919 8.64285 2.2011 9.18848 1.91309V6.49414L12.3555 5.80664C12.2847 6.37918 12.2537 6.62743 11.9893 7.18555L9.18848 7.77734V9.06445L12.3555 8.39453C12.2847 8.967 12.2535 9.21558 11.9893 9.77344L9.18848 10.3516V10.3643L7.91309 10.6279V8.04688L6.69922 8.30273V9.92969L6.67871 9.93359C6.39964 10.423 6.00576 11.0111 5.62598 11.4805L1.64062 12.2393C1.67636 11.7265 1.75152 11.4374 1.9834 10.9209L5.42383 10.1748V8.57324L2.23438 9.24805C2.27011 8.73527 2.34527 8.44619 2.57715 7.92969L5.42383 7.31055V2.22363C5.87585 1.71623 6.1537 1.48818 6.69922 1.2002V7.03418Z" fill="#061F42"/>
</svg>
