<svg width="24" height="24" viewBox="0 0 24 24" fill="none" xmlns="http://www.w3.org/2000/svg">
<g clip-path="url(#clip0_1_3359)">
<path d="M20.4853 20.4853C25.1716 15.799 25.1716 8.20101 20.4853 3.51472C15.799 -1.17157 8.20101 -1.17157 3.51472 3.51472C-1.17157 8.20101 -1.17157 15.799 3.51472 20.4853C8.20101 25.1716 15.799 25.1716 20.4853 20.4853Z" fill="#1F57A4"/>
<path d="M14.2255 6.78114H16.0569V3.77628H14.2255C11.8462 3.77628 9.91431 5.70497 9.91431 8.07774V9.96429H7.94997V12.7358H9.91431V20.2204H12.9192V12.7358H15.924V9.96429H12.9192V8.07774C12.9192 7.36137 13.5059 6.7779 14.2287 6.7779L14.2255 6.78114Z" fill="white"/>
</g>
<defs>
<clipPath id="clip0_1_3359">
<rect width="24" height="24" fill="white"/>
</clipPath>
</defs>
</svg>
