<svg width="18" height="19" viewBox="0 0 18 19" fill="none" xmlns="http://www.w3.org/2000/svg">
<path d="M1.5 15.207V14.457C1.5 11.5575 3.85051 9.20703 6.75 9.20703" stroke="#A4A5A5" stroke-width="1.5" stroke-linecap="round" stroke-linejoin="round"/>
<path d="M11.8528 9.44217C12.3342 8.91363 13.1658 8.91363 13.6472 9.44217C13.8904 9.70929 14.2401 9.85412 14.601 9.83725C15.3151 9.80388 15.9032 10.3919 15.8698 11.106C15.8529 11.4669 15.9977 11.8166 16.2649 12.0599C16.7934 12.5412 16.7934 13.3729 16.2649 13.8542C15.9977 14.0975 15.8529 14.4471 15.8698 14.808C15.9032 15.5221 15.3151 16.1102 14.601 16.0768C14.2401 16.0599 13.8904 16.2048 13.6472 16.4719C13.1658 17.0004 12.3342 17.0004 11.8528 16.4719C11.6096 16.2048 11.2599 16.0599 10.899 16.0768C10.1849 16.1102 9.59685 15.5221 9.63022 14.808C9.64709 14.4471 9.50226 14.0975 9.23514 13.8542C8.7066 13.3729 8.7066 12.5412 9.23514 12.0599C9.50226 11.8166 9.64709 11.4669 9.63022 11.106C9.59685 10.3919 10.1849 9.80388 10.899 9.83725C11.2599 9.85412 11.6096 9.70929 11.8528 9.44217Z" stroke="#A4A5A5" stroke-width="1.5"/>
<path d="M11.5234 12.957L12.3416 13.7752L13.978 12.1388" stroke="#A4A5A5" stroke-width="1.5" stroke-linecap="round" stroke-linejoin="round"/>
<path d="M6.75 9.20703C8.40685 9.20703 9.75 7.86389 9.75 6.20703C9.75 4.55018 8.40685 3.20703 6.75 3.20703C5.09315 3.20703 3.75 4.55018 3.75 6.20703C3.75 7.86389 5.09315 9.20703 6.75 9.20703Z" stroke="#A4A5A5" stroke-width="1.5" stroke-linecap="round" stroke-linejoin="round"/>
</svg>
