<svg width="24" height="24" viewBox="0 0 24 24" fill="none" xmlns="http://www.w3.org/2000/svg">
<g clip-path="url(#clip0_1_3511)">
<path d="M23.6765 14.7559C25.1985 8.30716 21.2046 1.84557 14.7559 0.323529C8.30716 -1.19851 1.84557 2.79537 0.323529 9.2441C-1.19851 15.6928 2.79537 22.1544 9.2441 23.6765C15.6928 25.1985 22.1544 21.2046 23.6765 14.7559Z" fill="#1F57A4"/>
<path d="M15.8131 18.4835H8.19408C6.71954 18.4835 5.51721 17.2844 5.51721 15.8067V8.18763C5.51721 6.71309 6.71629 5.51076 8.19408 5.51076H15.8131C17.2876 5.51076 18.49 6.70985 18.49 8.18763V15.8067C18.49 17.2812 17.2909 18.4835 15.8131 18.4835ZM8.19408 6.81031C7.43574 6.81031 6.81676 7.42929 6.81676 8.18763V15.8067C6.81676 16.565 7.43574 17.184 8.19408 17.184H15.8131C16.5714 17.184 17.1904 16.565 17.1904 15.8067V8.18763C17.1904 7.42929 16.5714 6.81031 15.8131 6.81031H8.19408Z" fill="white"/>
<path d="M12.002 15.2428C10.2131 15.2428 8.75797 13.7877 8.75797 11.9988C8.75797 10.2099 10.2131 8.75476 12.002 8.75476C13.7909 8.75476 15.246 10.2099 15.246 11.9988C15.246 13.7877 13.7909 15.2428 12.002 15.2428ZM12.002 10.0543C10.9293 10.0543 10.0575 10.9261 10.0575 11.9988C10.0575 13.0715 10.9293 13.9432 12.002 13.9432C13.0747 13.9432 13.9464 13.0715 13.9464 11.9988C13.9464 10.9261 13.0747 10.0543 12.002 10.0543Z" fill="white"/>
<path d="M15.246 9.40616C15.6039 9.40616 15.8941 9.11597 15.8941 8.75801C15.8941 8.40004 15.6039 8.10985 15.246 8.10985C14.888 8.10985 14.5978 8.40004 14.5978 8.75801C14.5978 9.11597 14.888 9.40616 15.246 9.40616Z" fill="white"/>
</g>
<defs>
<clipPath id="clip0_1_3511">
<rect width="24" height="24" fill="white"/>
</clipPath>
</defs>
</svg>
