<svg width="24" height="24" viewBox="0 0 24 24" fill="none" xmlns="http://www.w3.org/2000/svg">
<g clip-path="url(#clip0_1_3361)">
<path d="M23.6658 14.8007C25.2126 8.35788 21.2435 1.88102 14.8007 0.334234C8.35787 -1.21255 1.88102 2.75648 0.334234 9.1993C-1.21255 15.6421 2.75647 22.119 9.19929 23.6658C15.6421 25.2126 22.119 21.2435 23.6658 14.8007Z" fill="#1F57A4"/>
<path d="M5.09117 18.0263H7.98192V8.91334H5.09117V18.0263Z" fill="white"/>
<path d="M10.0204 8.6476H12.9014L12.9111 9.8726H12.9435C13.5949 9.16288 14.2398 8.6476 15.3449 8.6476C16.881 8.6476 19.0167 9.48371 19.0167 12.0245V18.0296H16.1259V12.8768C16.1259 11.9694 15.5556 11.1008 14.6255 11.1008C13.7602 11.1008 12.9111 11.9726 12.9111 12.8768V18.0296H10.0204V8.6476Z" fill="white"/>
<path d="M6.53655 8.20686C7.39387 8.20686 8.08887 7.51186 8.08887 6.65454C8.08887 5.79722 7.39387 5.10222 6.53655 5.10222C5.67923 5.10222 4.98423 5.79722 4.98423 6.65454C4.98423 7.51186 5.67923 8.20686 6.53655 8.20686Z" fill="white"/>
</g>
<defs>
<clipPath id="clip0_1_3361">
<rect width="24" height="24" fill="white"/>
</clipPath>
</defs>
</svg>
