<svg width="24" height="28" viewBox="0 0 24 28" fill="none" xmlns="http://www.w3.org/2000/svg">
<path d="M1.41992 18.376H4.15625C5.57213 18.376 6.75781 19.5708 6.75781 21.0908C6.75761 22.6106 5.57197 23.8047 4.15625 23.8047H1.89258V26.4395C1.89239 26.7428 1.66005 26.951 1.41992 26.9512C1.17967 26.9512 0.947456 26.743 0.947266 26.4395V18.8877C0.947348 18.7453 1.00178 18.6129 1.09277 18.5186C1.18325 18.4249 1.30184 18.376 1.41992 18.376ZM9.65332 18.376H12.6943C13.942 18.3762 14.991 19.4294 14.9912 20.7754V24.5518C14.991 25.8977 13.942 26.951 12.6943 26.9512H9.65332C9.41306 26.9512 9.18085 26.743 9.18066 26.4395V18.8877C9.18075 18.7451 9.23597 18.6129 9.32715 18.5186C9.41756 18.425 9.53518 18.376 9.65332 18.376ZM17.8867 18.376H22.751C22.9912 18.376 23.2244 18.5842 23.2246 18.8877C23.2246 19.1914 22.9913 19.3994 22.751 19.3994H18.3594V21.8369H22.1436C22.3837 21.8371 22.6161 22.0452 22.6162 22.3486C22.6162 22.6522 22.3838 22.8602 22.1436 22.8604H18.3594V26.4395C18.3592 26.7428 18.1268 26.9509 17.8867 26.9512C17.6465 26.9512 17.4143 26.7429 17.4141 26.4395V18.8877C17.4142 18.5842 17.6465 18.376 17.8867 18.376ZM10.126 25.9277H12.6943C13.4613 25.9275 14.0457 25.2904 14.0459 24.5518V20.7754C14.0457 20.0368 13.4613 19.3996 12.6943 19.3994H10.126V25.9277ZM1.89258 22.7812H4.15625C5.09124 22.7812 5.81132 22.0033 5.81152 21.0908C5.81152 20.1782 5.09141 19.3994 4.15625 19.3994H1.89258V22.7812ZM12.085 0.951172C12.6974 0.951172 13.2827 0.955163 13.8398 0.963867C14.2594 0.970423 14.6929 1.04858 15.1006 1.2373C16.0283 1.66681 17.8697 2.674 19.71 4.57812C21.4985 6.42887 22.4703 8.28179 22.9062 9.26953C23.0993 9.70688 23.1804 10.1731 23.1895 10.626C23.2114 11.7154 23.2236 12.9184 23.2236 14.2412C23.2236 14.5449 22.9913 14.7529 22.751 14.7529C22.5107 14.7528 22.2783 14.5448 22.2783 14.2412C22.2783 12.9254 22.2659 11.7293 22.2441 10.6475C22.2409 10.4862 22.2255 10.3305 22.1973 10.1816L22.1006 9.67285L21.583 9.65332L20.4561 9.60156C19.3293 9.54228 18.22 9.46311 17.2822 9.3877C16.2079 9.3013 15.3231 8.47051 15.1406 7.35352L15.1143 7.12598C15.0168 5.82803 14.9119 4.21221 14.8564 2.66016L14.8389 2.16406L14.3555 2.0498L14.0967 2.00488C14.0085 1.99453 13.9179 1.98874 13.8262 1.9873C13.2736 1.97867 12.6929 1.97461 12.085 1.97461C8.63645 1.97462 6.07717 2.1274 4.40723 2.27539C3.18836 2.38343 2.29166 3.34132 2.19824 4.56055C2.05086 6.48402 1.89258 9.62362 1.89258 14.2412C1.89258 14.5448 1.66015 14.7527 1.41992 14.7529C1.17958 14.7529 0.947268 14.5449 0.947266 14.2412C0.947266 9.59854 1.1061 6.43011 1.25586 4.47559C1.39013 2.72609 2.68154 1.40113 4.33008 1.25488C6.0255 1.10463 8.61069 0.951185 12.085 0.951172Z" fill="#061F42" stroke="#061F42" stroke-width="1.3"/>
</svg>
