<svg width="24" height="24" viewBox="0 0 24 24" fill="none" xmlns="http://www.w3.org/2000/svg">
<g clip-path="url(#clip0_1_3382)">
<path d="M0.0501817 24L1.7172 17.8807C0.595751 16.0464 0.00976918 13.9586 0.00976918 11.8111C0.00471761 5.29909 5.38969 0 12.0072 0C18.6248 0 24.0098 5.29909 24.0098 11.8111C24.0098 18.3231 18.6248 23.6222 12.0072 23.6222C10.0876 23.6222 8.18826 23.1649 6.49598 22.2999L0.0501817 24ZM6.7132 20.4954L7.01629 20.6595C8.53682 21.4896 10.2645 21.9321 12.0072 21.9321C17.6802 21.9321 22.2922 17.3886 22.2922 11.8111C22.2922 6.23364 17.6802 1.68517 12.0072 1.68517C6.33433 1.68517 1.7172 6.22867 1.7172 11.8111C1.7172 13.7597 2.28297 15.6537 3.35391 17.2891L3.56102 17.6023L2.46988 21.6139L6.70815 20.4954H6.7132Z" fill="white"/>
<path d="M15.8363 13.6205C15.3968 13.3471 14.8159 13.4366 14.5179 13.8492C14.3259 14.1176 14.134 14.3861 13.942 14.6545C12.078 13.3621 10.4514 11.7614 9.1329 9.92212C9.40568 9.73322 9.67847 9.54432 9.95125 9.35543C10.3655 9.06214 10.4564 8.49047 10.1836 8.05799C9.81486 7.47639 9.47641 6.8749 9.17331 6.25352C8.94599 5.79122 8.40547 5.55261 7.93063 5.74151C7.56186 5.89064 7.18805 6.04474 6.81928 6.19387C5.81907 6.57664 5.42505 7.92378 6.09186 9.10688C8.10743 12.7059 11.1232 15.6736 14.7806 17.657C15.9879 18.3132 17.3518 17.9205 17.7408 16.9412C17.8923 16.5783 18.0489 16.2104 18.2005 15.8476C18.3924 15.3803 18.1499 14.8484 17.6802 14.6247C17.0487 14.3264 16.4324 13.9934 15.8464 13.6305L15.8363 13.6205Z" fill="white"/>
</g>
<defs>
<clipPath id="clip0_1_3382">
<rect width="24" height="24" fill="white"/>
</clipPath>
</defs>
</svg>
