<svg width="20" height="24" viewBox="0 0 20 24" fill="none" xmlns="http://www.w3.org/2000/svg">
<path d="M20 19.0127C19.8678 20.1138 19.8099 20.5909 19.3164 21.6641L11.7373 23.2764C11.9115 22.1167 12.1432 21.2223 12.5205 20.6855L20 19.0127ZM9.44238 11.4189L11.708 10.9121V3.53906C12.5517 2.56337 13.0704 2.12515 14.0889 1.57129V10.3799L20 9.05762C19.8678 10.1588 19.8101 10.6365 19.3164 11.71L14.0889 12.8477V15.3242L20 14.0361C19.8679 15.137 19.8099 15.6143 19.3164 16.6875L14.0889 17.7988V17.8223L11.708 18.3301V13.3662L9.44238 13.8594V16.9873L9.4043 16.9951C8.88338 17.9362 8.14832 19.0671 7.43945 19.9697L0 21.4287C0.0666923 20.4428 0.205988 19.8875 0.638672 18.8945L7.06152 17.459V14.3779L1.1084 15.6758C1.1751 14.6898 1.31528 14.1347 1.74805 13.1416L7.06152 11.9521V2.16797C7.90528 1.1922 8.42408 0.754005 9.44238 0.200195V11.4189Z" fill="white"/>
</svg>
