<svg width="20" height="24" viewBox="0 0 20 24" fill="none" xmlns="http://www.w3.org/2000/svg">
<path d="M20 18.8125C19.8678 19.9136 19.8099 20.3907 19.3164 21.4639L11.7373 23.0762C11.9115 21.9165 12.1432 21.0221 12.5205 20.4854L20 18.8125ZM9.44238 11.2188L11.708 10.7119V3.33887C12.5517 2.36318 13.0704 1.92496 14.0889 1.37109V10.1797L20 8.85742C19.8678 9.95864 19.8101 10.4363 19.3164 11.5098L14.0889 12.6475V15.124L20 13.8359C19.8679 14.9368 19.8099 15.4141 19.3164 16.4873L14.0889 17.5986V17.6221L11.708 18.1299V13.166L9.44238 13.6592V16.7871L9.4043 16.7949C8.88338 17.736 8.14832 18.8669 7.43945 19.7695L0 21.2285C0.0666923 20.2426 0.205988 19.6873 0.638672 18.6943L7.06152 17.2588V14.1777L1.1084 15.4756C1.1751 14.4896 1.31528 13.9345 1.74805 12.9414L7.06152 11.752V1.96777C7.90528 0.992005 8.42408 0.553809 9.44238 0V11.2188Z" fill="white"/>
</svg>
