<svg width="11" height="12" viewBox="0 0 11 12" fill="none" xmlns="http://www.w3.org/2000/svg">
<path d="M10.7148 9.7832C10.6441 10.3556 10.613 10.604 10.3486 11.1621L6.28809 12C6.38142 11.3968 6.50578 10.9314 6.70801 10.6523L10.7148 9.7832ZM5.05859 5.83398L6.27246 5.57031V1.73633C6.72444 1.22899 7.00222 1.0009 7.54785 0.712891V5.29395L10.7148 4.60645C10.644 5.17899 10.613 5.42723 10.3486 5.98535L7.54785 6.57715V7.86426L10.7148 7.19434C10.6441 7.76681 10.6129 8.01539 10.3486 8.57324L7.54785 9.15137V9.16406L6.27246 9.42773V6.84668L5.05859 7.10254V8.72949L5.03809 8.7334C4.75901 9.22278 4.36513 9.81088 3.98535 10.2803L0 11.0391C0.0357341 10.5263 0.110899 10.2372 0.342773 9.7207L3.7832 8.97461V7.37305L0.59375 8.04785C0.629484 7.53508 0.704646 7.246 0.936523 6.72949L3.7832 6.11035V1.02344C4.23522 0.516036 4.51308 0.287982 5.05859 0V5.83398Z" fill="#061F42"/>
</svg>
