<svg width="40" height="40" viewBox="0 0 40 40" fill="none" xmlns="http://www.w3.org/2000/svg">
<path d="M8 0.5H32C36.1421 0.5 39.5 3.85786 39.5 8V32C39.5 36.1421 36.1421 39.5 32 39.5H8C3.85786 39.5 0.5 36.1421 0.5 32V8C0.5 3.85786 3.85786 0.5 8 0.5Z" fill="white"/>
<path d="M8 0.5H32C36.1421 0.5 39.5 3.85786 39.5 8V32C39.5 36.1421 36.1421 39.5 32 39.5H8C3.85786 39.5 0.5 36.1421 0.5 32V8C0.5 3.85786 3.85786 0.5 8 0.5Z" stroke="#061F42"/>
<path d="M22 22L10 22" stroke="#061F42" stroke-width="1.5" stroke-linecap="round" stroke-linejoin="round"/>
<path d="M18 18H10" stroke="#131927" stroke-width="1.5" stroke-linecap="round" stroke-linejoin="round"/>
<path d="M14 14H10" stroke="#131927" stroke-width="1.5" stroke-linecap="round" stroke-linejoin="round"/>
<path d="M26 26H10" stroke="#131927" stroke-width="1.5" stroke-linecap="round" stroke-linejoin="round"/>
<path d="M27 22V12M27 12L30 15M27 12L24 15" stroke="#131927" stroke-width="1.5" stroke-linecap="round" stroke-linejoin="round"/>
</svg>
