<?xml version="1.0" encoding="UTF-8"?>
<svg xmlns="http://www.w3.org/2000/svg" version="1.1" xmlns:xlink="http://www.w3.org/1999/xlink" viewBox="0 0 2200 1466">
  <!-- Generator: Adobe Illustrator 30.3.0, SVG Export Plug-In . SVG Version: 2.1.3 Build 182)  -->
  <defs>
    <style>
      .st0 {
        fill: url(#linear-gradient2);
      }

      .st1 {
        fill: url(#linear-gradient10);
      }

      .st2 {
        fill: url(#linear-gradient1);
      }

      .st3 {
        fill: url(#linear-gradient9);
      }

      .st4 {
        fill: url(#linear-gradient8);
      }

      .st5 {
        fill: url(#linear-gradient11);
      }

      .st6 {
        fill: #fff;
      }

      .st6, .st7, .st8 {
        display: none;
      }

      .st9 {
        fill: url(#linear-gradient16);
      }

      .st7 {
        fill: url(#linear-gradient4);
      }

      .st10 {
        fill: url(#linear-gradient12);
      }

      .st11 {
        fill: url(#linear-gradient7);
      }

      .st12 {
        fill: url(#linear-gradient14);
      }

      .st13 {
        fill: url(#linear-gradient5);
      }

      .st14 {
        fill: url(#linear-gradient3);
      }

      .st15 {
        fill: url(#linear-gradient15);
      }

      .st16 {
        fill: url(#linear-gradient6);
      }

      .st17 {
        fill: url(#linear-gradient13);
      }

      .st18 {
        fill: url(#linear-gradient);
      }
    </style>
    <linearGradient id="linear-gradient" x1="-338.65" y1="1184.83" x2="-60.94" y2="891.34" gradientTransform="translate(884.11) rotate(-180) scale(1 -1)" gradientUnits="userSpaceOnUse">
      <stop offset="0" stop-color="#17f5f7"/>
      <stop offset="1" stop-color="#1581cc"/>
    </linearGradient>
    <linearGradient id="linear-gradient1" x1="68.47" y1="817.38" x2="-300.76" y2="419.74" xlink:href="#linear-gradient"/>
    <linearGradient id="linear-gradient2" x1="-338.65" y1="1184.83" x2="-60.94" y2="891.34" gradientTransform="translate(1221.89)" gradientUnits="userSpaceOnUse">
      <stop offset="0" stop-color="#066ca8"/>
      <stop offset="1" stop-color="#06306a"/>
    </linearGradient>
    <linearGradient id="linear-gradient3" x1="68.47" y1="817.38" x2="-300.76" y2="419.74" gradientTransform="translate(1221.89)" gradientUnits="userSpaceOnUse">
      <stop offset="0" stop-color="#066ca8"/>
      <stop offset="1" stop-color="#06306a"/>
    </linearGradient>
    <linearGradient id="linear-gradient4" x1="2668.39" y1="536.35" x2="3033" y2="536.35" gradientTransform="matrix(1,0,0,1,0,0)" xlink:href="#linear-gradient"/>
    <linearGradient id="linear-gradient5" x1="342.85" y1="595.37" x2="501.33" y2="431.84" gradientUnits="userSpaceOnUse">
      <stop offset="0" stop-color="#0dffff"/>
      <stop offset="1" stop-color="#3c53ff"/>
    </linearGradient>
    <linearGradient id="linear-gradient6" x1="568.88" y1="430.04" x2="326.11" y2="119.82" xlink:href="#linear-gradient5"/>
    <linearGradient id="linear-gradient7" x1="335.51" y1="1305.3" x2="502.98" y2="1140.49" gradientUnits="userSpaceOnUse">
      <stop offset="0" stop-color="#22d2ff"/>
      <stop offset="1" stop-color="#9d3cff"/>
    </linearGradient>
    <linearGradient id="linear-gradient8" x1="525.85" y1="1073.76" x2="329.14" y2="839.84" xlink:href="#linear-gradient7"/>
    <linearGradient id="linear-gradient9" x1="1004.67" y1="605.37" x2="1160.62" y2="440.56" gradientUnits="userSpaceOnUse">
      <stop offset="0" stop-color="#3bf5cc"/>
      <stop offset="1" stop-color="#14d1d6"/>
    </linearGradient>
    <linearGradient id="linear-gradient10" x1="1233.29" y1="399.03" x2="1025.95" y2="175.73" xlink:href="#linear-gradient9"/>
    <linearGradient id="linear-gradient11" x1="969.61" y1="1347.29" x2="1174.3" y2="1134.63" gradientUnits="userSpaceOnUse">
      <stop offset="0" stop-color="#c5fc4e"/>
      <stop offset="1" stop-color="#00b35f"/>
    </linearGradient>
    <linearGradient id="linear-gradient12" x1="1233.93" y1="1120.36" x2="981.4" y2="819.97" xlink:href="#linear-gradient11"/>
    <linearGradient id="linear-gradient13" x1="1685.22" y1="590.02" x2="1830.54" y2="441.15" gradientUnits="userSpaceOnUse">
      <stop offset="0" stop-color="#ffe70f"/>
      <stop offset="1" stop-color="#ff533c"/>
    </linearGradient>
    <linearGradient id="linear-gradient14" x1="1890.08" y1="385.99" x2="1661.47" y2="139.66" xlink:href="#linear-gradient13"/>
    <linearGradient id="linear-gradient15" x1="1697.91" y1="1294.11" x2="1816.65" y2="1152.34" gradientUnits="userSpaceOnUse">
      <stop offset="0" stop-color="#ff643d"/>
      <stop offset="1" stop-color="#b80455"/>
    </linearGradient>
    <linearGradient id="linear-gradient16" x1="1890.33" y1="1089.19" x2="1681.21" y2="880.07" xlink:href="#linear-gradient15"/>
  </defs>
  <g id="Background">
    <rect class="st6" y="0" width="2200" height="1466"/>
    <g class="st8">
      <path class="st18" d="M850.9,990.71l172.05,190.93c43.22,47.97,104.78,75.36,169.35,75.36h168.76c40.65,0,62.08-48.16,34.87-78.36l-357.18-396.38-135.06,74.05-52.77,134.4Z"/>
      <path class="st2" d="M723.82,849.69l127.07,141.02,187.84-208.46,357.19-396.4c27.21-30.2,5.77-78.36-34.88-78.36h-168.75c-64.57,0-126.12,27.39-169.35,75.36l-299.13,331.96c-34.54,38.32-34.54,96.55,0,134.88Z"/>
    </g>
    <g>
      <path class="st0" d="M1255.1,990.71l-172.05,190.93c-43.22,47.97-104.78,75.36-169.35,75.36h-168.76c-40.65,0-62.08-48.16-34.87-78.36l357.18-396.38,135.06,74.05,52.77,134.4Z"/>
      <path class="st14" d="M1382.18,849.69l-127.07,141.02-187.84-208.46-357.19-396.4c-27.21-30.2-5.77-78.36,34.88-78.36h168.75c64.57,0,126.12,27.39,169.35,75.36l299.13,331.96c34.54,38.32,34.54,96.55,0,134.88Z"/>
    </g>
    <rect class="st7" x="2668.39" y="409.7" width="364.61" height="253.3"/>
  </g>
  <g id="Objects" class="st8">
    <g>
      <path class="st13" d="M544.56,496.36l-96.61,107.22c-24.27,26.94-58.84,42.32-95.1,42.32h-94.77c-22.83,0-34.86-27.04-19.58-44l200.58-222.59,75.84,41.58,29.63,75.48Z"/>
      <path class="st16" d="M615.92,417.17l-71.36,79.19-105.48-117.06-200.58-222.6c-15.28-16.96-3.24-44,19.58-44h94.76c36.26,0,70.82,15.38,95.1,42.32l167.98,186.41c19.39,21.52,19.39,54.22,0,75.74Z"/>
    </g>
    <g>
      <path class="st11" d="M544.56,1203.77l-96.61,107.22c-24.27,26.94-58.84,42.32-95.1,42.32h-94.77c-22.83,0-34.86-27.04-19.58-44l200.58-222.59,75.84,41.58,29.63,75.48Z"/>
      <path class="st4" d="M615.92,1124.58l-71.36,79.19-105.48-117.06-200.58-222.6c-15.28-16.96-3.24-44,19.58-44h94.76c36.26,0,70.82,15.38,95.1,42.32l167.98,186.41c19.39,21.52,19.39,54.22,0,75.74Z"/>
    </g>
    <g>
      <path class="st3" d="M1213.49,496.36l-96.61,107.22c-24.27,26.94-58.84,42.32-95.1,42.32h-94.77c-22.83,0-34.86-27.04-19.58-44l200.58-222.59,75.84,41.58,29.63,75.48Z"/>
      <path class="st1" d="M1284.85,417.17l-71.36,79.19-105.48-117.06-200.58-222.6c-15.28-16.96-3.24-44,19.58-44h94.76c36.26,0,70.82,15.38,95.1,42.32l167.98,186.41c19.39,21.52,19.39,54.22,0,75.74Z"/>
    </g>
    <g>
      <path class="st5" d="M1213.49,1203.77l-96.61,107.22c-24.27,26.94-58.84,42.32-95.1,42.32h-94.77c-22.83,0-34.86-27.04-19.58-44l200.58-222.59,75.84,41.58,29.63,75.48Z"/>
      <path class="st10" d="M1284.85,1124.58l-71.36,79.19-105.48-117.06-200.58-222.6c-15.28-16.96-3.24-44,19.58-44h94.76c36.26,0,70.82,15.38,95.1,42.32l167.98,186.41c19.39,21.52,19.39,54.22,0,75.74Z"/>
    </g>
    <g>
      <path class="st17" d="M1882.42,496.36l-96.61,107.22c-24.27,26.94-58.84,42.32-95.1,42.32h-94.77c-22.83,0-34.86-27.04-19.58-44l200.58-222.59,75.84,41.58,29.63,75.48Z"/>
      <path class="st12" d="M1953.78,417.17l-71.36,79.19-105.48-117.06-200.58-222.6c-15.28-16.96-3.24-44,19.58-44h94.76c36.26,0,70.82,15.38,95.1,42.32l167.98,186.41c19.39,21.52,19.39,54.22,0,75.74Z"/>
    </g>
    <g>
      <path class="st15" d="M1882.42,1203.77l-96.61,107.22c-24.27,26.94-58.84,42.32-95.1,42.32h-94.77c-22.83,0-34.86-27.04-19.58-44l200.58-222.59,75.84,41.58,29.63,75.48Z"/>
      <path class="st9" d="M1953.78,1124.58l-71.36,79.19-105.48-117.06-200.58-222.6c-15.28-16.96-3.24-44,19.58-44h94.76c36.26,0,70.82,15.38,95.1,42.32l167.98,186.41c19.39,21.52,19.39,54.22,0,75.74Z"/>
    </g>
  </g>
</svg>