<svg width="24" height="24" viewBox="0 0 24 24" fill="none" xmlns="http://www.w3.org/2000/svg">
<g clip-path="url(#clip0_3724_13178)">
<path d="M8.33333 17.1333H2.46667C2.07768 17.1333 1.70463 16.9788 1.42958 16.7038C1.15452 16.4287 1 16.0557 1 15.6667V3.93333C1 3.54435 1.15452 3.1713 1.42958 2.89624C1.70463 2.62119 2.07768 2.46667 2.46667 2.46667H15.6667C16.0557 2.46667 16.4287 2.62119 16.7038 2.89624C16.9788 3.1713 17.1333 3.54435 17.1333 3.93333V8.33333M1 6.86667H17.1333M5.4 3.93333V1M12.7333 3.93333V1M19.7264 17.1334H17.1333V14.5413M11.2667 17.1333C11.2667 18.6893 11.8848 20.1815 12.985 21.2817C14.0852 22.3819 15.5774 23 17.1333 23C18.6893 23 20.1815 22.3819 21.2817 21.2817C22.3819 20.1815 23 18.6893 23 17.1333C23 15.5774 22.3819 14.0852 21.2817 12.985C20.1815 11.8848 18.6893 11.2667 17.1333 11.2667C15.5774 11.2667 14.0852 11.8848 12.985 12.985C11.8848 14.0852 11.2667 15.5774 11.2667 17.1333Z" stroke="white" stroke-linecap="round" stroke-linejoin="round"/>
</g>
<defs>
<clipPath id="clip0_3724_13178">
<rect width="24" height="24" fill="white"/>
</clipPath>
</defs>
</svg>
